<svg width="167" height="40" viewBox="0 0 167 40" fill="none" xmlns="http://www.w3.org/2000/svg">
<path fill-rule="evenodd" clip-rule="evenodd" d="M54.9022 7.60352L55.432 7.23787C57.0422 6.12664 57.4467 3.92049 56.3355 2.31031L56.1343 2.01875C55.023 0.408565 52.8169 0.00408121 51.2067 1.11531L50.604 1.53123C51.0711 1.32631 51.5881 1.21467 52.1312 1.21968C54.1853 1.23865 55.8351 2.91923 55.8162 4.97338C55.8077 5.8946 55.4638 6.85786 54.9022 7.60352ZM48.8304 2.75526C49.3826 2.44037 50.023 2.26298 50.7045 2.26927C52.7586 2.28824 54.4084 3.96883 54.3895 6.02297C54.3815 6.89152 54.0753 7.79745 53.5697 8.52313L53.856 8.32552C54.4045 7.60508 54.7388 6.55803 54.747 5.67201C54.7659 3.61787 53.0368 1.93655 50.8848 1.91669C50.5369 1.91347 50.1993 1.95388 49.8776 2.03258L48.8304 2.75526ZM37.0636 19.9144L52.5236 9.24505C53.0159 8.53237 53.3126 7.55565 53.3203 6.72161C53.3392 4.66746 51.6101 2.98614 49.4581 2.96628C49.0552 2.96256 48.6661 3.01734 48.2995 3.12233L48.3047 3.11802L33.6467 13.2339C33.9702 13.1455 34.3111 13.0998 34.663 13.1031C36.7171 13.122 38.367 14.8026 38.348 16.8568C38.3378 17.9661 37.8412 19.1365 37.0636 19.9144ZM32.0541 14.333C32.4261 14.2124 32.8237 14.1488 33.2363 14.1526C35.2904 14.1716 36.9403 15.8522 36.9213 17.9063C36.9118 18.9315 36.4871 20.0086 35.8091 20.7801L36.0521 20.6124C36.0308 20.6214 36.0094 20.6302 35.9879 20.6387C36.7701 19.966 37.2688 18.64 37.2788 17.5554C37.2977 15.5012 35.5686 13.8199 33.4167 13.8001C33.1926 13.798 32.9727 13.814 32.7587 13.8467L32.0541 14.333ZM28.953 16.4731C27.7873 17.2776 27.2535 18.6559 27.4693 19.9665C27.6485 19.819 28.2988 19.284 29.2043 18.5435C30.2752 17.6678 32.2136 18.7484 30.7836 20.1522C29.3536 21.556 29.7102 21.3055 29.7102 21.3055L29.8389 22.9649C30.9056 23.3948 32.1609 23.2978 33.1783 22.5957L34.7409 21.5173C35.419 20.8079 35.8429 19.6041 35.8521 18.605C35.871 16.5508 34.1419 14.8695 31.9899 14.8497C31.7221 14.8472 31.4604 14.8706 31.2073 14.9173L28.953 16.4731ZM22.4674 25.8939C24.0394 25.2746 25.7333 24.9924 27.3899 24.9702L18.0979 31.5842L31.9683 25.6899L31.6901 25.4949C36.8202 26.8551 39.6923 30.5705 33.3493 33.2787C27.0311 35.0338 18.3577 36.581 11.5509 37.7952L11.5504 37.7953C8.02641 38.4239 5.00279 38.9632 3.06535 39.396C0.225457 40.0304 -1.65865 37.5422 2.16962 36.0078C3.89881 35.3147 8.05299 33.185 12.4715 30.9198L12.4717 30.9197L12.4717 30.9197C16.0024 29.1096 19.7018 27.2131 22.4674 25.8939Z" fill="white"/>
<path d="M66.2762 7.02393V15.1027C66.2762 16.0339 66.463 16.7323 66.8365 17.198C67.2101 17.651 67.8348 17.8775 68.7107 17.8775C69.5866 17.8775 70.2113 17.651 70.5849 17.198C70.9584 16.7323 71.1452 16.0339 71.1452 15.1027V7.02393H74.0048V14.8007C74.0048 15.7697 73.9082 16.6128 73.715 17.3301C73.5347 18.0348 73.2319 18.6199 72.8069 19.0855C72.3818 19.5385 71.8344 19.8783 71.1645 20.1048C70.4947 20.3187 69.6768 20.4257 68.7107 20.4257C67.7446 20.4257 66.9267 20.3187 66.2569 20.1048C65.5871 19.8783 65.0396 19.5385 64.6145 19.0855C64.1895 18.6199 63.8803 18.0348 63.6871 17.3301C63.5068 16.6128 63.4166 15.7697 63.4166 14.8007V7.02393H66.2762Z" fill="white"/>
<path d="M78.8049 20.4257C77.826 20.4257 77.0016 20.2747 76.3318 19.9727C75.6619 19.6581 75.063 19.2177 74.5349 18.6514L76.2158 16.9903C76.5765 17.3804 76.9758 17.6887 77.4138 17.9152C77.8517 18.1417 78.3476 18.255 78.9015 18.255C79.4683 18.255 79.8612 18.1732 80.0801 18.0096C80.2991 17.8334 80.4086 17.6006 80.4086 17.3112C80.4086 16.8456 80.0673 16.5688 79.3846 16.4807L78.2832 16.3485C76.0033 16.0717 74.8633 15.0524 74.8633 13.2907C74.8633 12.8125 74.9535 12.3783 75.1338 11.9882C75.327 11.5856 75.5911 11.2458 75.926 10.969C76.2738 10.6795 76.686 10.4593 77.1626 10.3083C77.6521 10.1447 78.1995 10.0629 78.8049 10.0629C79.333 10.0629 79.7968 10.1007 80.1961 10.1762C80.6083 10.2391 80.9689 10.3398 81.2781 10.4782C81.6001 10.604 81.8899 10.7676 82.1475 10.969C82.418 11.1577 82.6821 11.3716 82.9397 11.6107L81.2974 13.2529C80.9754 12.9383 80.6083 12.6929 80.1961 12.5168C79.7968 12.328 79.3846 12.2336 78.9595 12.2336C78.47 12.2336 78.1222 12.3091 77.9161 12.4601C77.71 12.6111 77.607 12.8125 77.607 13.0642C77.607 13.3284 77.6778 13.5361 77.8195 13.6871C77.9741 13.8255 78.2575 13.9262 78.6697 13.9891L79.8096 14.1401C82.0381 14.4295 83.1523 15.4236 83.1523 17.1224C83.1523 17.6006 83.0492 18.0411 82.8431 18.4437C82.637 18.8464 82.3408 19.1988 81.9543 19.5008C81.5808 19.7902 81.1235 20.0167 80.5825 20.1803C80.0544 20.3439 79.4619 20.4257 78.8049 20.4257Z" fill="white"/>
<path d="M88.7143 20.4257C87.9415 20.4257 87.2523 20.3062 86.6469 20.0671C86.0415 19.8154 85.5263 19.4693 85.1012 19.0289C84.689 18.5759 84.3734 18.0285 84.1544 17.3867C83.9484 16.7449 83.8453 16.0277 83.8453 15.2349C83.8453 14.4547 83.9484 13.75 84.1544 13.1208C84.3605 12.479 84.6632 11.9316 85.0626 11.4786C85.4748 11.0256 85.9771 10.6795 86.5696 10.4404C87.1622 10.1888 87.8384 10.0629 88.5984 10.0629C89.4357 10.0629 90.1506 10.2013 90.7431 10.4782C91.3485 10.755 91.838 11.1263 92.2115 11.5919C92.598 12.0575 92.8749 12.5986 93.0424 13.2152C93.2227 13.8192 93.3129 14.4547 93.3129 15.1216V15.9522H86.8015V16.1032C86.8015 16.7575 86.9818 17.2797 87.3425 17.6698C87.7032 18.0474 88.2699 18.2361 89.0428 18.2361C89.6353 18.2361 90.1184 18.1229 90.4919 17.8964C90.8655 17.6573 91.2133 17.3741 91.5353 17.0469L92.9651 18.7835C92.5142 19.2995 91.9217 19.7021 91.1875 19.9916C90.4662 20.281 89.6418 20.4257 88.7143 20.4257ZM88.6564 12.1204C88.0767 12.1204 87.6195 12.3091 87.2845 12.6866C86.9625 13.0516 86.8015 13.5423 86.8015 14.159V14.31H90.3567V14.1401C90.3567 13.5361 90.215 13.0516 89.9316 12.6866C89.6611 12.3091 89.236 12.1204 88.6564 12.1204Z" fill="white"/>
<path d="M44.7077 36.9202V19.6505H48.4685V33.5801H55.0498V36.9202H44.7077Z" fill="white"/>
<path d="M58.1961 22.5453C57.4538 22.5453 56.9095 22.3803 56.5631 22.0504C56.2332 21.7041 56.0683 21.267 56.0683 20.7391V20.1948C56.0683 19.667 56.2332 19.2381 56.5631 18.9082C56.9095 18.5619 57.4538 18.3887 58.1961 18.3887C58.9383 18.3887 59.4744 18.5619 59.8043 18.9082C60.1507 19.2381 60.3239 19.667 60.3239 20.1948V20.7391C60.3239 21.267 60.1507 21.7041 59.8043 22.0504C59.4744 22.3803 58.9383 22.5453 58.1961 22.5453ZM56.3652 23.9308H60.027V36.9202H56.3652V23.9308Z" fill="white"/>
<path d="M61.3548 36.9202V30.4255V23.9308H65.0166V26.1328H65.165C65.396 25.44 65.7918 24.8545 66.3526 24.3762C66.9134 23.8813 67.6804 23.6339 68.6536 23.6339C69.5443 23.6339 70.3031 23.8566 70.9299 24.3019C71.5566 24.7473 72.0102 25.3988 72.2907 26.2565H72.3649C72.4803 25.8936 72.6535 25.5555 72.8845 25.2421C73.1319 24.9122 73.4288 24.6318 73.7752 24.4009C74.1215 24.17 74.5092 23.9885 74.938 23.8566C75.3669 23.7081 75.8287 23.6339 76.3236 23.6339C77.5771 23.6339 78.5338 24.0793 79.1936 24.97C79.8699 25.8607 80.208 27.1307 80.208 28.7802V36.9202H76.5462V29.0771C76.5462 27.4276 75.9524 26.6029 74.7648 26.6029C74.2205 26.6029 73.7257 26.7596 73.2803 27.073C72.835 27.3864 72.6123 27.8647 72.6123 28.508V36.9202H68.9505V29.0771C68.9505 27.4276 68.3567 26.6029 67.1691 26.6029C66.9052 26.6029 66.6413 26.6441 66.3774 26.7266C66.13 26.7926 65.899 26.9081 65.6846 27.073C65.4867 27.2379 65.3217 27.4441 65.1898 27.6915C65.0743 27.9225 65.0166 28.1946 65.0166 28.508V36.9202H63.1857H61.3548Z" fill="white"/>
<path d="M87.4244 37.2171C86.4347 37.2171 85.5522 37.0604 84.777 36.747C84.0018 36.4171 83.342 35.9635 82.7977 35.3862C82.2698 34.7924 81.8657 34.0749 81.5853 33.2337C81.3214 32.3925 81.1894 31.4523 81.1894 30.4131C81.1894 29.3905 81.3214 28.4668 81.5853 27.6421C81.8492 26.8008 82.2368 26.0833 82.7482 25.4895C83.276 24.8957 83.9193 24.4421 84.678 24.1287C85.4368 23.7988 86.3027 23.6339 87.2759 23.6339C88.3481 23.6339 89.2635 23.8153 90.0222 24.1782C90.7975 24.5411 91.4243 25.0277 91.9026 25.638C92.3975 26.2483 92.7521 26.9575 92.9665 27.7658C93.1974 28.5575 93.3129 29.3905 93.3129 30.2647V31.3533H84.9749V31.5513C84.9749 32.409 85.2059 33.0935 85.6677 33.6048C86.1295 34.0997 86.8553 34.3471 87.845 34.3471C88.6037 34.3471 89.2223 34.1986 89.7006 33.9017C90.1789 33.5883 90.6243 33.2172 91.0367 32.7883L92.8675 35.0646C92.2902 35.7409 91.5315 36.2687 90.5913 36.6481C89.6676 37.0274 88.612 37.2171 87.4244 37.2171ZM87.3501 26.3307C86.6079 26.3307 86.0223 26.5782 85.5935 27.073C85.1811 27.5513 84.9749 28.1946 84.9749 29.0029V29.2008H89.5274V28.9781C89.5274 28.1864 89.346 27.5513 88.9831 27.073C88.6367 26.5782 88.0924 26.3307 87.3501 26.3307Z" fill="white"/>
<path d="M109.321 25.3328H109.247L107.985 27.8565L104.62 33.9677L101.329 27.8812L100.018 25.1596H99.9438V36.6645H96.4057V19.3948H100.389L104.62 27.4853H104.669L108.851 19.3948H112.859V36.6645H109.321V25.3328Z" fill="white"/>
<path d="M120.203 36.9614C119.247 36.9614 118.389 36.8047 117.63 36.4913C116.888 36.1779 116.253 35.7243 115.725 35.1305C115.214 34.5367 114.818 33.8192 114.537 32.978C114.257 32.1368 114.117 31.1966 114.117 30.1574C114.117 29.1183 114.257 28.1781 114.537 27.3369C114.818 26.4957 115.214 25.7864 115.725 25.2091C116.253 24.6153 116.888 24.1617 117.63 23.8483C118.389 23.5349 119.247 23.3782 120.203 23.3782C121.16 23.3782 122.009 23.5349 122.752 23.8483C123.51 24.1617 124.145 24.6153 124.657 25.2091C125.185 25.7864 125.589 26.4957 125.869 27.3369C126.149 28.1781 126.29 29.1183 126.29 30.1574C126.29 31.1966 126.149 32.1368 125.869 32.978C125.589 33.8192 125.185 34.5367 124.657 35.1305C124.145 35.7243 123.51 36.1779 122.752 36.4913C122.009 36.8047 121.16 36.9614 120.203 36.9614ZM120.203 34.0666C120.929 34.0666 121.49 33.844 121.886 33.3986C122.282 32.9533 122.479 32.3182 122.479 31.4935V28.8461C122.479 28.0214 122.282 27.3864 121.886 26.941C121.49 26.4957 120.929 26.273 120.203 26.273C119.477 26.273 118.917 26.4957 118.521 26.941C118.125 27.3864 117.927 28.0214 117.927 28.8461V31.4935C117.927 32.3182 118.125 32.9533 118.521 33.3986C118.917 33.844 119.477 34.0666 120.203 34.0666Z" fill="white"/>
<path d="M127.352 36.6645V23.6751H131.014V26.4957H131.138C131.204 26.1328 131.319 25.7864 131.484 25.4565C131.649 25.1101 131.864 24.805 132.128 24.5411C132.408 24.2771 132.738 24.071 133.117 23.9225C133.497 23.7576 133.942 23.6751 134.453 23.6751H135.097V27.0895H134.181C133.109 27.0895 132.309 27.2297 131.781 27.5101C131.27 27.7905 131.014 28.31 131.014 29.0688V36.6645H127.352Z" fill="white"/>
<path d="M142.005 36.6645C140.734 36.6645 139.77 36.3429 139.11 35.6996C138.466 35.0563 138.145 34.1161 138.145 32.879V26.5204H136.314V23.6751H137.229C137.724 23.6751 138.062 23.5596 138.244 23.3287C138.425 23.0813 138.516 22.7349 138.516 22.2896V20.1618H141.807V23.6751H144.38V26.5204H141.807V33.8192H144.182V36.6645H142.005Z" fill="white"/>
<path d="M155.839 36.6645C155.18 36.6645 154.627 36.4583 154.182 36.046C153.753 35.6336 153.481 35.081 153.365 34.3883H153.217C153.019 35.2295 152.582 35.8728 151.906 36.3181C151.229 36.747 150.396 36.9614 149.407 36.9614C148.104 36.9614 147.106 36.615 146.413 35.9223C145.72 35.2295 145.374 34.314 145.374 33.1759C145.374 31.8069 145.869 30.7925 146.858 30.1327C147.864 29.4564 149.225 29.1183 150.941 29.1183H152.994V28.3018C152.994 27.675 152.829 27.1802 152.499 26.8173C152.169 26.4379 151.617 26.2482 150.842 26.2482C150.116 26.2482 149.539 26.4049 149.11 26.7183C148.681 27.0317 148.326 27.3864 148.046 27.7822L145.869 25.8524C146.396 25.0771 147.056 24.4751 147.848 24.0462C148.656 23.6009 149.745 23.3782 151.114 23.3782C152.961 23.3782 154.347 23.7823 155.27 24.5905C156.194 25.3988 156.656 26.5781 156.656 28.1286V33.8192H157.868V36.6645H155.839ZM150.767 34.413C151.378 34.413 151.897 34.2811 152.326 34.0171C152.772 33.7532 152.994 33.3244 152.994 32.7306V31.1966H151.213C149.778 31.1966 149.06 31.6832 149.06 32.6563V33.0275C149.06 33.5058 149.209 33.8604 149.506 34.0914C149.803 34.3058 150.223 34.413 150.767 34.413Z" fill="white"/>
<path d="M159.064 36.6727V23.6833H162.725V26.5038H162.849C162.915 26.1409 163.03 25.7946 163.195 25.4647C163.36 25.1183 163.575 24.8131 163.839 24.5492C164.119 24.2853 164.449 24.0791 164.828 23.9307C165.208 23.7657 165.653 23.6833 166.164 23.6833H166.808V27.0976H165.892C164.82 27.0976 164.02 27.2378 163.492 27.5182C162.981 27.7986 162.725 28.3182 162.725 29.077V36.6727H159.064Z" fill="white"/>
</svg>
