<svg width="255" height="60" viewBox="0 0 255 60" fill="none" xmlns="http://www.w3.org/2000/svg">
<path fill-rule="evenodd" clip-rule="evenodd" d="M83.906 11.6204L84.7157 11.0616C87.1765 9.36332 87.7947 5.99171 86.0965 3.53089L85.789 3.08532C84.0907 0.624499 80.7191 0.00633358 78.2582 1.7046L77.3372 2.34025C78.051 2.02707 78.8411 1.85645 79.6711 1.86411C82.8104 1.8931 85.3318 4.4615 85.3028 7.60081C85.2898 9.0087 84.7643 10.4808 83.906 11.6204ZM74.6266 4.2109C75.4705 3.72966 76.4492 3.45857 77.4907 3.46818C80.63 3.49717 83.1514 6.06557 83.1224 9.20488C83.1102 10.5323 82.6424 11.9168 81.8695 13.0258L82.3071 12.7238C83.1454 11.6228 83.6563 10.0226 83.6688 8.66852C83.6978 5.52922 81.0552 2.95969 77.7664 2.92933C77.2347 2.92442 76.7186 2.98618 76.227 3.10644L74.6266 4.2109ZM56.6436 30.4348L80.2708 14.1291C81.0232 13.04 81.4766 11.5472 81.4884 10.2726C81.5173 7.13329 78.8747 4.56376 75.5859 4.5334C74.9702 4.52771 74.3755 4.61144 73.8153 4.77189L73.8232 4.7653L51.4217 20.2251C51.9161 20.0901 52.4371 20.0203 52.9748 20.0252C56.1141 20.0542 58.6355 22.6226 58.6065 25.7619C58.5909 27.4574 57.832 29.246 56.6436 30.4348ZM48.9877 21.9049C49.5563 21.7206 50.1638 21.6235 50.7944 21.6293C53.9337 21.6583 56.4551 24.2267 56.4261 27.366C56.4117 28.9327 55.7626 30.5789 54.7264 31.7579L55.0978 31.5016C55.0652 31.5154 55.0325 31.5288 54.9996 31.5418C56.1951 30.5137 56.9572 28.4873 56.9725 26.8297C57.0015 23.6903 54.3589 21.1208 51.0701 21.0905C50.7276 21.0873 50.3917 21.1118 50.0645 21.1618L48.9877 21.9049ZM44.2484 25.1756C42.4669 26.4051 41.6511 28.5115 41.9808 30.5145C42.2547 30.2891 43.2486 29.4715 44.6325 28.3396C46.2691 27.0013 49.2315 28.6528 47.0461 30.7982C44.8607 32.9436 45.4056 32.5608 45.4056 32.5608L45.6023 35.0969C47.2325 35.7539 49.151 35.6056 50.7059 34.5326L53.0939 32.8846C54.1303 31.8004 54.778 29.9606 54.7921 28.4337C54.8211 25.2944 52.1785 22.7249 48.8897 22.6945C48.4804 22.6907 48.0804 22.7265 47.6936 22.798L44.2484 25.1756ZM34.3366 38.4412C36.739 37.4947 39.3279 37.0634 41.8597 37.0295L27.6588 47.1377L48.8566 38.1296L48.4311 37.8313C56.2715 39.91 60.6611 45.5882 50.9671 49.7272C41.3112 52.4095 28.0559 54.774 17.6533 56.6297L17.6531 56.6297L17.6529 56.6297C12.267 57.5905 7.64585 58.4148 4.68478 59.0762C0.344633 60.0457 -2.53481 56.2431 3.31586 53.8981C5.95857 52.8388 12.3075 49.584 19.0602 46.1221L19.0603 46.122C24.4562 43.3558 30.1099 40.4573 34.3366 38.4412Z" fill="#3F2F15" fill-opacity="0.5"/>
<path d="M101.289 9.60254V21.9492C101.289 23.3724 101.574 24.4397 102.145 25.1513C102.716 25.8436 103.671 26.1898 105.009 26.1898C106.348 26.1898 107.303 25.8436 107.874 25.1513C108.445 24.4397 108.73 23.3724 108.73 21.9492V9.60254H113.1V21.4877C113.1 22.9685 112.953 24.257 112.657 25.3532C112.382 26.4302 111.919 27.3245 111.269 28.036C110.62 28.7284 109.783 29.2476 108.759 29.5938C107.736 29.9207 106.486 30.0842 105.009 30.0842C103.533 30.0842 102.283 29.9207 101.259 29.5938C100.236 29.2476 99.3989 28.7284 98.7492 28.036C98.0996 27.3245 97.6271 26.4302 97.3319 25.3532C97.0563 24.257 96.9185 22.9685 96.9185 21.4877V9.60254H101.289Z" fill="#3F2F15"/>
<path d="M120.436 30.0842C118.94 30.0842 117.68 29.8534 116.656 29.3919C115.633 28.9111 114.717 28.238 113.91 27.3726L116.479 24.834C117.03 25.4302 117.641 25.9013 118.31 26.2475C118.979 26.5937 119.737 26.7668 120.584 26.7668C121.45 26.7668 122.05 26.6418 122.385 26.3917C122.72 26.1225 122.887 25.7667 122.887 25.3244C122.887 24.6128 122.365 24.1897 121.322 24.0551L119.639 23.8532C116.154 23.4301 114.412 21.8723 114.412 19.1799C114.412 18.4491 114.55 17.7856 114.826 17.1894C115.121 16.574 115.525 16.0547 116.036 15.6317C116.568 15.1893 117.198 14.8528 117.926 14.622C118.674 14.372 119.511 14.247 120.436 14.247C121.243 14.247 121.952 14.3047 122.562 14.4201C123.192 14.5162 123.743 14.6701 124.216 14.8816C124.708 15.0739 125.151 15.3239 125.545 15.6317C125.958 15.9201 126.362 16.2471 126.755 16.6125L124.245 19.1222C123.753 18.6414 123.192 18.2664 122.562 17.9971C121.952 17.7087 121.322 17.5644 120.672 17.5644C119.924 17.5644 119.393 17.6798 119.078 17.9106C118.763 18.1414 118.605 18.4491 118.605 18.8337C118.605 19.2376 118.714 19.5549 118.93 19.7857C119.166 19.9972 119.599 20.1511 120.229 20.2472L121.972 20.478C125.377 20.9203 127.08 22.4396 127.08 25.0359C127.08 25.7667 126.923 26.4398 126.608 27.0552C126.293 27.6706 125.84 28.2091 125.249 28.6707C124.678 29.113 123.98 29.4592 123.153 29.7092C122.346 29.9592 121.44 30.0842 120.436 30.0842Z" fill="#3F2F15"/>
<path d="M135.581 30.0842C134.399 30.0842 133.346 29.9015 132.421 29.5361C131.496 29.1515 130.708 28.6226 130.059 27.9495C129.429 27.2572 128.946 26.4206 128.612 25.4398C128.297 24.459 128.139 23.3628 128.139 22.1512C128.139 20.9588 128.297 19.8818 128.612 18.9203C128.927 17.9394 129.389 17.1029 130 16.4105C130.63 15.7182 131.397 15.1893 132.303 14.8239C133.208 14.4393 134.242 14.247 135.403 14.247C136.683 14.247 137.775 14.4585 138.681 14.8816C139.606 15.3047 140.354 15.872 140.925 16.5836C141.516 17.2952 141.939 18.1221 142.195 19.0645C142.471 19.9876 142.608 20.9588 142.608 21.9781V23.2474H132.657V23.4782C132.657 24.4782 132.933 25.2763 133.484 25.8725C134.035 26.4494 134.901 26.7379 136.082 26.7379C136.988 26.7379 137.726 26.5648 138.297 26.2187C138.868 25.8533 139.4 25.4205 139.892 24.9205L142.077 27.5745C141.388 28.363 140.482 28.9784 139.36 29.4207C138.258 29.863 136.998 30.0842 135.581 30.0842ZM135.492 17.3913C134.606 17.3913 133.907 17.6798 133.395 18.2568C132.903 18.8145 132.657 19.5645 132.657 20.5069V20.7376H138.09V20.478C138.09 19.5549 137.874 18.8145 137.441 18.2568C137.027 17.6798 136.378 17.3913 135.492 17.3913Z" fill="#3F2F15"/>
<path d="M68.3259 55.2923V28.8993H74.0734V50.1877H84.1315V55.2923H68.3259Z" fill="#3F2F15"/>
<path d="M88.9399 33.3234C87.8056 33.3234 86.9737 33.0713 86.4443 32.5672C85.9402 32.0378 85.6881 31.3698 85.6881 30.5631V29.7312C85.6881 28.9246 85.9402 28.2692 86.4443 27.765C86.9737 27.2356 87.8056 26.9709 88.9399 26.9709C90.0743 26.9709 90.8936 27.2356 91.3977 27.765C91.9271 28.2692 92.1918 28.9246 92.1918 29.7312V30.5631C92.1918 31.3698 91.9271 32.0378 91.3977 32.5672C90.8936 33.0713 90.0743 33.3234 88.9399 33.3234ZM86.1418 35.4409H91.738V55.2924H86.1418V35.4409Z" fill="#3F2F15"/>
<path d="M93.7673 55.2923V45.3666V35.4409H99.3636V38.8062H99.5904C99.9433 37.7474 100.548 36.8525 101.405 36.1215C102.262 35.3652 103.435 34.9871 104.922 34.9871C106.283 34.9871 107.443 35.3274 108.401 36.0081C109.359 36.6887 110.052 37.6844 110.48 38.9952H110.594C110.77 38.4407 111.035 37.9239 111.388 37.4449C111.766 36.9408 112.22 36.5122 112.749 36.1593C113.278 35.8064 113.871 35.5291 114.526 35.3274C115.182 35.1006 115.888 34.9871 116.644 34.9871C118.56 34.9871 120.022 35.6677 121.03 37.029C122.064 38.3902 122.58 40.3313 122.58 42.8521V55.2923H116.984V43.3058C116.984 40.785 116.077 39.5246 114.262 39.5246C113.43 39.5246 112.673 39.7641 111.993 40.243C111.312 40.722 110.972 41.453 110.972 42.4362V55.2923H105.376V43.3058C105.376 40.785 104.468 39.5246 102.653 39.5246C102.25 39.5246 101.847 39.5876 101.443 39.7137C101.065 39.8145 100.712 39.991 100.384 40.243C100.082 40.4951 99.8299 40.8102 99.6282 41.1883C99.4518 41.5413 99.3636 41.9572 99.3636 42.4362V55.2923H96.5654H93.7673Z" fill="#3F2F15"/>
<path d="M133.609 55.7461C132.096 55.7461 130.748 55.5066 129.563 55.0277C128.378 54.5235 127.37 53.8303 126.538 52.948C125.731 52.0405 125.114 50.9439 124.685 49.6583C124.282 48.3727 124.08 46.9358 124.08 45.3477C124.08 43.7848 124.282 42.3731 124.685 41.1127C125.089 39.8271 125.681 38.7305 126.462 37.8231C127.269 36.9156 128.252 36.2223 129.412 35.7434C130.571 35.2392 131.895 34.9871 133.382 34.9871C135.021 34.9871 136.42 35.2644 137.579 35.819C138.764 36.3736 139.722 37.1172 140.453 38.0499C141.209 38.9826 141.751 40.0666 142.079 41.3018C142.432 42.5118 142.608 43.7848 142.608 45.1208V46.7846H129.865V47.0871C129.865 48.3979 130.218 49.444 130.924 50.2255C131.63 50.9817 132.739 51.3599 134.252 51.3599C135.411 51.3599 136.357 51.133 137.088 50.6792C137.819 50.2003 138.499 49.6331 139.13 48.9777L141.928 52.4564C141.045 53.49 139.886 54.2966 138.449 54.8764C137.037 55.4562 135.424 55.7461 133.609 55.7461ZM133.495 39.1087C132.361 39.1087 131.466 39.4868 130.811 40.243C130.181 40.9741 129.865 41.9572 129.865 43.1924V43.4949H136.823V43.1546C136.823 41.9446 136.546 40.9741 135.991 40.243C135.462 39.4868 134.63 39.1087 133.495 39.1087Z" fill="#3F2F15"/>
<path d="M167.073 37.5836H166.96L165.031 41.4405L159.889 50.7801L154.86 41.4783L152.856 37.3189H152.742V54.9017H147.335V28.5087H153.423L159.889 40.8733H159.964L166.355 28.5087H172.48V54.9017H167.073V37.5836Z" fill="#3F2F15"/>
<path d="M183.704 55.3554C182.242 55.3554 180.931 55.1159 179.772 54.637C178.637 54.158 177.667 53.4648 176.86 52.5573C176.079 51.6498 175.474 50.5533 175.045 49.2676C174.617 47.982 174.402 46.5451 174.402 44.957C174.402 43.3689 174.617 41.932 175.045 40.6464C175.474 39.3608 176.079 38.2769 176.86 37.3946C177.667 36.4871 178.637 35.7938 179.772 35.3149C180.931 34.8359 182.242 34.5965 183.704 34.5965C185.166 34.5965 186.465 34.8359 187.599 35.3149C188.758 35.7938 189.729 36.4871 190.51 37.3946C191.317 38.2769 191.935 39.3608 192.363 40.6464C192.792 41.932 193.006 43.3689 193.006 44.957C193.006 46.5451 192.792 47.982 192.363 49.2676C191.935 50.5533 191.317 51.6498 190.51 52.5573C189.729 53.4648 188.758 54.158 187.599 54.637C186.465 55.1159 185.166 55.3554 183.704 55.3554ZM183.704 50.9314C184.813 50.9314 185.67 50.5911 186.275 49.9104C186.88 49.2298 187.183 48.2593 187.183 46.9989V42.953C187.183 41.6926 186.88 40.722 186.275 40.0414C185.67 39.3608 184.813 39.0205 183.704 39.0205C182.595 39.0205 181.738 39.3608 181.133 40.0414C180.528 40.722 180.225 41.6926 180.225 42.953V46.9989C180.225 48.2593 180.528 49.2298 181.133 49.9104C181.738 50.5911 182.595 50.9314 183.704 50.9314Z" fill="#3F2F15"/>
<path d="M194.63 54.9017V35.0502H200.226V39.3608H200.415C200.516 38.8062 200.693 38.2769 200.945 37.7727C201.197 37.2433 201.525 36.777 201.928 36.3736C202.357 35.9703 202.861 35.6552 203.44 35.4283C204.02 35.1762 204.701 35.0502 205.482 35.0502H206.465V40.2683H205.066C203.428 40.2683 202.205 40.4826 201.399 40.9111C200.617 41.3396 200.226 42.1337 200.226 43.2933V54.9017H194.63Z" fill="#3F2F15"/>
<path d="M217.023 54.9017C215.082 54.9017 213.607 54.4101 212.599 53.427C211.616 52.4439 211.124 51.007 211.124 49.1164V39.3986H208.326V35.0502H209.725C210.481 35.0502 210.998 34.8737 211.275 34.5208C211.553 34.1427 211.691 33.6133 211.691 32.9327V29.6808H216.72V35.0502H220.653V39.3986H216.72V50.5533H220.35V54.9017H217.023Z" fill="#3F2F15"/>
<path d="M238.166 54.9017C237.158 54.9017 236.314 54.5866 235.633 53.9564C234.978 53.3262 234.562 52.4817 234.385 51.4229H234.158C233.856 52.7086 233.188 53.6917 232.154 54.3723C231.121 55.0277 229.848 55.3554 228.335 55.3554C226.344 55.3554 224.819 54.826 223.76 53.7673C222.701 52.7086 222.172 51.3095 222.172 49.5701C222.172 47.4778 222.928 45.9275 224.441 44.9192C225.978 43.8857 228.058 43.3689 230.68 43.3689H233.818V42.1211C233.818 41.1632 233.566 40.4069 233.062 39.8524C232.558 39.2726 231.713 38.9827 230.528 38.9827C229.419 38.9827 228.537 39.2222 227.882 39.7011C227.226 40.1801 226.684 40.722 226.256 41.327L222.928 38.3777C223.735 37.1929 224.743 36.2728 225.953 35.6174C227.188 34.9368 228.852 34.5965 230.944 34.5965C233.768 34.5965 235.885 35.2141 237.297 36.4493C238.708 37.6845 239.414 39.4868 239.414 41.8564V50.5533H241.267V54.9017H238.166ZM230.415 51.4607C231.348 51.4607 232.142 51.2591 232.797 50.8558C233.478 50.4524 233.818 49.797 233.818 48.8895V46.5451H231.096C228.902 46.5451 227.806 47.2888 227.806 48.7761V49.3433C227.806 50.0743 228.033 50.6163 228.487 50.9692C228.94 51.2969 229.583 51.4607 230.415 51.4607Z" fill="#3F2F15"/>
<path d="M243.094 54.9142V35.0627H248.69V39.3733H248.879C248.98 38.8187 249.156 38.2893 249.408 37.7852C249.66 37.2558 249.988 36.7894 250.391 36.3861C250.82 35.9828 251.324 35.6677 251.904 35.4408C252.484 35.1887 253.164 35.0627 253.946 35.0627H254.929V40.2808H253.53C251.891 40.2808 250.669 40.4951 249.862 40.9236C249.081 41.3521 248.69 42.1462 248.69 43.3058V54.9142H243.094Z" fill="#3F2F15"/>
</svg>
