<?xml version="1.0" encoding="UTF-8"?>
<svg width="240px" height="74px" viewBox="0 0 240 74" version="1.1" xmlns="http://www.w3.org/2000/svg" xmlns:xlink="http://www.w3.org/1999/xlink">
    <!-- Generator: Sketch 50.2 (55047) - http://www.bohemiancoding.com/sketch -->
    <title>oxford-university-logo</title>
    <desc>Created with Sketch.</desc>
    <defs></defs>
    <g id="oxford-university-logo" stroke="none" stroke-width="1" fill="none" fill-rule="evenodd">
        <g id="Group">
            <polygon id="Fill-1" fill="#012664" points="0 73.9047619 240 73.9047619 240 0 0 0"></polygon>
            <path d="M82.8654068,24.1074612 C82.2841016,24.688057 81.3739001,25.1428571 80.0068131,25.1428571 C78.8921349,25.1428571 77.8233492,24.7975554 77.1018169,24.0763942 C76.1594906,23.1347084 76.1905955,21.942959 76.1905955,20.907563 L76.1905955,14.4761905 L77.6045949,14.4761905 L77.6045949,21.0644258 C77.6045949,21.8645276 77.5724701,22.6488414 78.2011976,23.275783 C78.6254484,23.7000255 79.2847708,23.9348103 80.0537254,23.9348103 C80.8236998,23.9348103 81.405005,23.6684492 81.7818336,23.2920805 C82.4885783,22.5861981 82.4263684,21.7860963 82.4263684,20.013751 L82.4263684,14.4761905 L83.808753,14.4761905 L83.808753,19.7937357 C83.808753,21.7387319 83.8714727,23.1036415 82.8654068,24.1074612" id="Fill-2" fill="#FFFFFE"></path>
            <polyline id="Fill-3" fill="#FFFFFE" points="93.8371554 25.1428571 88.8789223 16.6506453 88.9106109 25.1428571 87.6190476 25.1428571 87.6190476 14.4761905 89.0199874 14.4761905 93.9797538 23.0000742 93.9480653 14.4761905 95.2380952 14.4761905 95.2380952 25.1428571 93.8371554 25.1428571"></polyline>
            <polygon id="Fill-4" fill="#FFFFFE" points="99.8095238 25.1428571 101.333333 25.1428571 101.333333 14.4761905 99.8095238 14.4761905"></polygon>
            <polyline id="Fill-5" fill="#FFFFFE" points="108.961872 25.1428571 107.354226 25.1428571 103.619048 14.4761905 105.129148 14.4761905 108.197858 23.6714137 111.349349 14.4761905 112.761905 14.4761905 108.961872 25.1428571"></polyline>
            <polyline id="Fill-6" fill="#FFFFFE" points="115.809524 25.1428571 115.809524 14.4761905 121.77617 14.4761905 121.77617 15.6594719 117.232428 15.6594719 117.232428 19.0177273 121.500617 19.0177273 121.500617 20.1693369 117.232428 20.1693369 117.232428 23.9273847 121.904762 23.9273847 121.904762 25.1428571 115.809524 25.1428571"></polyline>
            <path d="M129.832171,16.1714312 C129.235064,15.5951083 128.455267,15.6117231 127.558529,15.6117231 L126.412815,15.6117231 L126.412815,19.4336263 L126.928548,19.4336263 C127.989114,19.4336263 129.068542,19.4658173 129.765886,18.7939598 C130.114558,18.4580311 130.313953,17.962705 130.313953,17.4507641 C130.313953,16.8744413 130.080607,16.4113061 129.832171,16.1714312 Z M131.011297,25.1428571 L129.733013,22.3598927 C128.969383,20.7129592 128.603467,20.5691381 127.110159,20.5691381 L126.412815,20.5691381 L126.412815,25.1428571 L124.952381,25.1428571 L124.952381,14.4761905 L127.408174,14.4762112 C128.886392,14.4762112 130.031566,14.4601157 130.927766,15.3240808 C131.475295,15.8510788 131.791093,16.5551272 131.791093,17.4507641 C131.791093,18.1864844 131.574992,18.8095361 131.110455,19.2898052 C130.712204,19.705173 130.063901,20.0571973 129.334761,20.1371556 C129.699601,20.1532511 130.063901,20.360935 130.280541,20.5691381 C130.612507,20.8889713 130.844775,21.4009122 131.143329,22.0561549 L132.571429,25.1428571 L131.011297,25.1428571 Z" id="Fill-7" fill="#FFFFFE"></path>
            <path d="M138.172558,25.9047619 C136.263857,25.9047619 134.986315,24.8509766 134.857143,24.7189193 L135.552361,23.6977474 C135.746119,23.8298047 136.797348,24.636584 138.107972,24.636584 C139.433822,24.636584 140.21043,23.8298047 140.21043,22.8252067 C140.21043,21.6227901 138.88983,21.0304035 137.725181,20.4540562 C136.350497,19.7787995 135.164845,19.0543556 135.164845,17.4402623 C135.164845,15.6946464 136.554757,14.4761905 138.543796,14.4761905 C140.533885,14.4761905 141.520528,15.4807884 141.617669,15.5962717 L140.888845,16.5511477 C140.760198,16.436199 139.902727,15.7277944 138.641462,15.7277944 C137.461061,15.7277944 136.619868,16.3207157 136.619868,17.3087397 C136.619868,18.345951 137.574481,18.7303607 138.641462,19.2906687 C139.59555,19.784146 141.714286,20.5363915 141.714286,22.6931494 C141.714286,24.5050613 140.404188,25.9047619 138.172558,25.9047619" id="Fill-8" fill="#FFFFFE"></path>
            <polygon id="Fill-9" fill="#FFFFFE" points="144.761905 25.1428571 146.285714 25.1428571 146.285714 14.4761905 144.761905 14.4761905"></polygon>
            <polyline id="Fill-10" fill="#FFFFFE" points="153.86362 15.6594719 153.86362 25.1428571 152.438552 25.1428571 152.438552 15.6594719 149.333333 15.6594719 149.333333 14.4761905 156.952381 14.4761905 156.952381 15.6594719 153.86362 15.6594719"></polyline>
            <polyline id="Fill-11" fill="#FFFFFE" points="163.39614 20.9206349 163.39614 25.1428571 161.936661 25.1428571 161.936661 20.9206349 158.47619 14.4761905 160.089018 14.4761905 162.757185 19.4954013 165.373704 14.4761905 166.857143 14.4761905 163.39614 20.9206349"></polyline>
            <path d="M178.616584,15.7296122 C176.554761,15.7296122 175.207802,17.4943613 175.207802,20.1821772 C175.207802,22.8539303 176.718189,24.6347422 178.698825,24.6347422 C180.955179,24.6347422 182.125004,22.6724224 182.125004,20.0831242 C182.125004,17.4611652 180.679461,15.7296122 178.616584,15.7296122 Z M178.633454,25.9047619 C175.776108,25.9047619 173.714286,23.5462303 173.714286,20.2153733 C173.714286,16.818124 175.759766,14.4761905 178.715695,14.4761905 C181.605199,14.4761905 183.619048,16.818124 183.619048,20.1329184 C183.619048,23.5628284 181.589383,25.9047619 178.633454,25.9047619 Z" id="Fill-12" fill="#FFFFFE"></path>
            <polyline id="Fill-13" fill="#FFFFFE" points="188.169234 15.6594719 188.169234 19.0177273 192.491651 19.0177273 192.491651 20.1693369 188.169234 20.1693369 188.169234 25.1428571 186.666667 25.1428571 186.666667 14.4761905 192.761905 14.4761905 192.761905 15.6594719 188.169234 15.6594719"></polyline>
            <path d="M93.7218528,46.0939226 C93.7218528,39.8077882 90.782612,35.5602009 85.7140268,35.5602009 C80.2182264,35.5602009 77.7196645,40.7002445 77.7196645,46.0939226 C77.7196645,52.382688 80.656834,56.6529024 85.7140268,56.6529024 C91.2191483,56.6529024 93.7218528,51.5007559 93.7218528,46.0939226 Z M97.5238095,45.9671054 C97.5238095,52.8904831 92.2765707,57.9047619 85.7140268,57.9047619 C79.0328983,57.9047619 73.9047619,52.8262852 73.9047619,46.2223184 C73.9047619,39.3042028 79.1587326,34.2857143 85.7140268,34.2857143 C92.4039585,34.2857143 97.5238095,39.3605075 97.5238095,45.9671054 Z" id="Fill-14" fill="#FFFFFE"></path>
            <path d="M166.096324,46.0939226 C166.096324,39.8077882 163.159347,35.5602009 158.095238,35.5602009 C152.595139,35.5602009 150.097777,40.7002445 150.097777,46.0939226 C150.097777,52.382688 153.033718,56.6529024 158.095238,56.6529024 C163.593266,56.6529024 166.096324,51.5007559 166.096324,46.0939226 Z M169.904762,45.9671054 C169.904762,52.8904831 164.655797,57.9047619 158.095238,57.9047619 C151.415067,57.9047619 146.285714,52.8262852 146.285714,46.2223184 C146.285714,39.3042028 151.537268,34.2857143 158.095238,34.2857143 C164.779034,34.2857143 169.904762,39.3605075 169.904762,45.9671054 Z" id="Fill-15" fill="#FFFFFE"></path>
            <path d="M184.824713,50.2822094 C183.497365,48.3711826 182.991235,47.7965602 181.349322,47.7965602 L179.643031,47.7965602 L179.643031,55.4201641 C179.643031,56.0578741 179.832503,56.3712089 180.590389,56.5015898 L183.18123,57.0089188 L183.18123,57.9047619 L172.952381,57.9047619 L172.952381,57.0089188 L175.286231,56.5015898 C176.047258,56.3075956 176.229926,56.0578741 176.229926,55.4201641 L176.229926,37.5316911 C176.229926,36.8934554 175.983926,36.5732861 175.286231,36.4465853 L172.952381,35.9355762 L172.952381,35.047619 L182.927903,35.047619 C185.015231,35.047619 186.466626,35.2358302 187.666787,35.6832261 C190.127301,36.6347965 191.51484,38.9926935 191.51484,41.2002318 C191.51484,43.9981643 189.43484,46.3329292 185.958926,47.1609532 L185.958926,47.2902827 C186.656621,47.6046689 187.032947,48.057322 189.497648,51.2968674 L192.655857,55.4201641 C193.095515,56.0578741 193.603738,56.5015898 194.420769,56.6303935 L196.571429,57.0089188 L196.571429,57.9047619 L191.078846,57.9047619 C190.444482,57.9047619 190.127301,57.7107677 189.560456,56.9432026 L184.824713,50.2822094 Z M179.643031,46.5232433 L182.483535,46.5232433 C186.779097,46.5232433 187.666787,43.8730407 187.666787,41.265948 C187.666787,39.3133885 186.842952,37.7193765 184.824713,36.8287907 C183.746504,36.3834978 182.736862,36.3214617 181.349322,36.3214617 L179.643031,36.3214617 L179.643031,46.5232433 Z" id="Fill-16" fill="#FFFFFE"></path>
            <path d="M140.028012,42.9188416 L141.119494,42.9188416 L141.119494,50.4767293 L140.028012,50.4767293 L139.57642,48.3054664 C139.390783,47.4821739 138.875893,47.1609532 138.102494,47.1609532 L132.52062,47.1609532 L132.52062,55.4201641 C132.52062,56.0578741 132.713703,56.3712089 133.479123,56.5015898 L136.116338,57.0089188 L136.116338,57.9047619 L125.714286,57.9047619 L125.714286,57.0089188 L128.085545,56.5015898 C128.860008,56.3075956 129.053091,56.0578741 129.053091,55.4201641 L129.053091,37.5316911 C129.053091,36.8934554 128.794583,36.5732861 128.085545,36.4465853 L125.714286,35.9355762 L125.714286,35.047619 L143.238095,35.047619 L143.238095,40.7533617 L142.149805,40.7533617 L141.248216,37.5316911 C140.991303,36.6347965 140.474817,36.3214617 139.705674,36.3214617 L132.52062,36.3214617 L132.52062,45.8855333 L138.102494,45.8855333 C138.875893,45.8855333 139.390783,45.586919 139.57642,44.7652037 L140.028012,42.9188416" id="Fill-17" fill="#FFFFFE"></path>
            <path d="M204.72959,36.3214617 L204.72959,55.6052209 C204.72959,56.4358736 204.917483,56.6303935 205.739712,56.6303935 L208.517808,56.6303935 C211.168722,56.6303935 213.127206,56.3075956 214.517301,55.2918861 C216.856282,53.5732763 217.86588,50.601853 217.86588,46.6525727 C217.86588,42.7889864 216.856282,39.11992 213.69769,37.2725064 C212.365167,36.5096729 210.664708,36.3214617 208.0117,36.3214617 L204.72959,36.3214617 Z M198.095238,57.9047619 L198.095238,57.0089188 L200.430032,56.5015898 C201.189978,56.3075956 201.379965,56.0578741 201.379965,55.4201641 L201.379965,37.5316911 C201.379965,36.8934554 201.126126,36.5732861 200.430032,36.4465853 L198.095238,35.9355762 L198.095238,35.047619 L208.771123,35.047619 C211.67483,35.047619 213.760495,35.4240414 215.46043,36.1921322 C219.759465,38.1683495 221.714286,42.4109869 221.714286,46.587908 C221.714286,50.6617861 220.204337,54.4596563 216.348081,56.5015898 C214.58063,57.451583 212.118132,57.9047619 208.897781,57.9047619 L198.095238,57.9047619 Z" id="Fill-18" fill="#FFFFFE"></path>
            <path d="M106.311861,57.0089188 L106.311861,57.9047619 L98.2857143,57.9047619 L98.2857143,57.0089188 L100.274986,56.5657288 C101.021221,56.3712089 101.582959,56.1230645 102.022042,55.5400305 L108.742277,46.7819022 L102.022042,37.5316911 C101.582959,36.8934554 101.021221,36.5732861 100.338375,36.3834978 L98.4769112,35.9355762 L98.4769112,35.047619 L108.367614,35.047619 L108.367614,35.9355762 L106.248472,36.3214617 C105.568203,36.4465853 105.630561,36.6347965 106.007285,37.1452799 L110.975312,44.321488 L111.10209,44.321488 L116.260798,37.2725064 C116.635977,36.764126 116.635977,36.5096729 116.073724,36.3834978 L114.086513,35.9355762 L114.086513,35.047619 L122.104929,35.047619 L122.104929,35.9355762 L120.119265,36.3834978 C119.369938,36.5732861 118.807685,36.8287907 118.375302,37.4013102 L111.976648,45.586919 L119.121021,55.4201641 C119.558042,56.0578741 120.119265,56.3712089 120.806233,56.5657288 L122.666667,57.0089188 L122.666667,57.9047619 L112.774934,57.9047619 L112.774934,57.0089188 L114.898198,56.6303935 C115.573829,56.5015898 115.51044,56.3075956 115.145569,55.7981637 L109.726606,48.057322 L109.604982,48.057322 L104.07058,55.7981637 C103.694885,56.3075956 103.635104,56.4358736 104.318981,56.5657288 L106.311861,57.0089188" id="Fill-19" fill="#FFFFFE"></path>
            <path d="M35.8085147,29.1345104 C35.8085147,28.1834123 35.5042573,27.416776 34.8447808,27.0073347 C34.4320404,26.7509007 33.8724693,26.6671998 33.1827184,26.6671998 L28.1904762,26.6666667 L28.1904762,37.3649211 L33.6262378,37.3649211 C34.8846421,37.3649211 35.6243456,37.6645383 35.6889309,38.8571429 L35.8095238,38.8571429 L35.8085147,29.1345104" id="Fill-20" fill="#FFFFFE"></path>
            <path d="M37.3338356,29.1345104 C37.3338356,28.1834123 37.636709,27.416776 38.2931857,27.0073347 C38.7040487,26.7509007 39.2615767,26.6671998 39.9471855,26.6671998 L44.952381,26.6666667 L44.952381,37.3649211 L39.5061859,37.3649211 C38.254008,37.3649211 37.5171669,37.6645383 37.4528754,38.8571429 L37.3333333,38.8571429 L37.3338356,29.1345104" id="Fill-21" fill="#FFFFFE"></path>
            <path d="M46.3452694,27.0533758 C46.3452694,27.0533758 46.3452694,37.7022975 46.3452694,38.5419476 C45.5484971,38.5419476 38.134001,38.5419476 38.134001,38.5419476 L38.0211512,38.8255699 C37.8878309,39.1620709 37.6458599,39.4734679 36.7913505,39.4734679 C35.937366,39.4734679 35.6959198,39.1620709 35.5620747,38.8255699 L35.4502746,38.5419476 C35.4502746,38.5419476 28.0530996,38.5419476 27.2552776,38.5419476 C27.2552776,37.7022975 27.2552776,27.0533758 27.2552776,27.0533758 L26.3629766,27.0533758 L26.3629766,27.3503513 L25.7373162,27.1548602 C25.6454616,26.871772 25.3866944,26.6666667 25.0785881,26.6666667 C24.6938489,26.6666667 24.3810187,26.9844732 24.3810187,27.3759894 C24.3810187,27.7680398 24.6938489,28.0858463 25.0785881,28.0858463 C25.2381525,28.0858463 25.38407,28.0286946 25.5021686,27.9357562 L26.3629766,28.204957 L26.3629766,29.0819962 L25.7436148,28.969295 C25.6370635,28.7390856 25.415038,28.5735057 25.1489224,28.5606867 C24.7647081,28.5419922 24.4371812,28.8437748 24.4188103,29.2352911 C24.3999145,29.6268073 24.6975231,29.9595694 25.0817374,29.9782639 C25.2843422,29.9878782 25.469101,29.907759 25.6029461,29.7731586 L26.3629766,29.912032 L26.3629766,30.8088339 L25.7131715,30.7799909 C25.5892992,30.5839658 25.3735723,30.4531043 25.1274022,30.4531043 C24.7431879,30.4531043 24.4298328,30.7709108 24.4298328,31.162427 C24.4298328,31.5539433 24.7431879,31.8722839 25.1274022,31.8722839 C25.3510023,31.8722839 25.5478334,31.7627876 25.6759049,31.5961394 L26.3629766,31.6271189 L26.3629766,32.6019036 L25.6911265,32.6270076 C25.5635799,32.4576889 25.3651742,32.3465901 25.1399994,32.3465901 C24.7557851,32.3465901 24.44243,32.6643966 24.44243,33.0559129 C24.44243,33.4474291 24.7557851,33.7652356 25.1399994,33.7652356 C25.3835451,33.7652356 25.5982222,33.6370448 25.7226194,33.4436902 L26.3629766,33.4201886 L26.3629766,34.3180587 L25.6207921,34.447852 C25.4948202,34.319127 25.3200342,34.2395418 25.1274022,34.2395418 C24.7431879,34.2395418 24.4298328,34.5573483 24.4298328,34.9488646 C24.4298328,35.3414491 24.7431879,35.6581874 25.1274022,35.6581874 C25.4045404,35.6581874 25.6423123,35.4926075 25.7551622,35.253852 L26.3629766,35.1475604 L26.3629766,36.0267361 L25.5394353,36.2825837 C25.4213366,36.1901795 25.2759441,36.1330277 25.1153299,36.1330277 C24.7305907,36.1330277 24.4177605,36.4503001 24.4177605,36.8423505 C24.4177605,37.234935 24.7305907,37.5516732 25.1153299,37.5516732 C25.4234362,37.5516732 25.6822035,37.3476361 25.774058,37.064548 L26.3629766,36.8813418 L26.3629766,37.7274015 L25.4428568,38.1306686 C25.3289572,38.0601637 25.1940623,38.0211723 25.0507693,38.0265135 C24.666555,38.0420033 24.3657971,38.373163 24.3815436,38.7641451 C24.3967652,39.1561955 24.7227175,39.4611829 25.1064069,39.4451591 C25.4313094,39.4318059 25.6937509,39.1930504 25.7583115,38.8832558 L26.3629766,38.6172598 L26.3629766,39.4505004 C26.3629766,39.4505004 34.4304271,39.4505004 34.8996724,39.4505004 C35.2613168,40.0631459 35.8733302,40.3809524 36.7913505,40.3809524 C37.7104205,40.3809524 38.3213842,40.0631459 38.6840783,39.4505004 C39.1527987,39.4505004 47.2380952,39.4505004 47.2380952,39.4505004 L47.2380952,27.0533758 L46.3452694,27.0533758" id="Fill-22" fill="#FFFFFE"></path>
            <path d="M31.2386093,23.6190476 C29.5551968,23.6190476 28.1904762,23.9599791 28.1904762,24.3806175 C28.1904762,24.8019257 29.5551968,25.1428571 31.2386093,25.1428571 C32.9209937,25.1428571 34.2857143,24.8019257 34.2857143,24.3806175 C34.2857143,23.9599791 32.9209937,23.6190476 31.2386093,23.6190476" id="Fill-23" fill="#FFFFFE"></path>
            <path d="M35.6532495,19.9658336 L33.8022914,21.3156538 L33.7866099,21.4526002 L34.2262327,21.6580198 C34.3138328,21.7029203 34.3149143,21.7758835 34.2700328,21.8196615 L33.1074386,22.8377795 L32.9965866,22.8282382 L32.173578,21.5676576 C32.1168002,21.4862755 32.1368076,21.4048934 32.236304,21.3874945 L32.7889418,21.2937648 L32.7889418,21.1489608 L31.3565176,19.047619 L31.1202136,19.047619 L29.6877894,21.1489608 L29.6877894,21.2937648 L30.2404272,21.3874945 C30.3393829,21.4048934 30.3604718,21.4862755 30.3036939,21.5676576 L29.4796039,22.8282382 L29.3687519,22.8377795 L28.2834837,21.8196615 C28.2391429,21.7758835 28.2396837,21.7029203 28.3262023,21.6580198 L28.7669066,21.4526002 L28.7506844,21.3156538 L26.822941,19.9658336 L26.6666667,20.0292555 L27.7989794,23.6190476 C28.3732468,23.3513286 29.6931968,23.1621854 31.2380952,23.1548891 C32.7829937,23.1621854 34.1034844,23.3513286 34.6772111,23.6190476 L35.8095238,20.0292555 L35.6532495,19.9658336" id="Fill-24" fill="#FFFFFE"></path>
            <path d="M36.5721997,45.7142857 C34.8881312,45.7142857 33.5238095,46.0552172 33.5238095,46.4765254 C33.5238095,46.8978336 34.8881312,47.2380952 36.5721997,47.2380952 C38.254726,47.2380952 39.6190476,46.8978336 39.6190476,46.4765254 C39.6190476,46.0552172 38.254726,45.7142857 36.5721997,45.7142857" id="Fill-25" fill="#FFFFFE"></path>
            <path d="M41.7484876,42.0610716 L39.8975295,43.4114531 L39.881848,43.5483995 L40.3214708,43.7532579 C40.4085302,43.7981584 40.4096117,43.8705604 40.3652709,43.9143383 L39.2026767,44.9335789 L39.0918247,44.922915 L38.2682754,43.663457 C38.2120383,43.5815136 38.2320457,43.5001315 38.3320829,43.4827326 L38.8841799,43.3895641 L38.8841799,43.2447602 L37.451215,41.1428571 L37.2154517,41.1428571 L35.7830275,43.2447602 L35.7830275,43.3895641 L36.3356653,43.4827326 C36.434621,43.5001315 36.4557099,43.5815136 36.3983913,43.663457 L35.574842,44.922915 L35.4645307,44.9335789 L34.3787218,43.9143383 C34.334381,43.8705604 34.3354625,43.7981584 34.4219811,43.7532579 L34.8626855,43.5483995 L34.8453817,43.4114531 L32.9181791,42.0610716 L32.7619048,42.1244936 L33.8936767,45.7142857 C34.4684849,45.4465667 35.7878941,45.2574235 37.3333333,45.2501272 C38.8782318,45.2574235 40.1981818,45.4465667 40.7724492,45.7142857 L41.9047619,42.1244936 L41.7484876,42.0610716" id="Fill-26" fill="#FFFFFE"></path>
            <path d="M42.6671807,23.6190476 C40.9842823,23.6190476 39.6190476,23.9599791 39.6190476,24.3806175 C39.6190476,24.8019257 40.9842823,25.1428571 42.6671807,25.1428571 C44.3500791,25.1428571 45.7142857,24.8019257 45.7142857,24.3806175 C45.7142857,23.9599791 44.3500791,23.6190476 42.6671807,23.6190476" id="Fill-27" fill="#FFFFFE"></path>
            <path d="M47.0818117,19.9658336 L45.2307441,21.3156538 L45.2150617,21.4526002 L45.6552513,21.6580198 C45.7423158,21.7029203 45.7433974,21.7758835 45.6990539,21.8196615 L44.5358502,22.8377795 L44.4255324,22.8282382 L43.6019344,21.5676576 C43.5451532,21.4862755 43.5651618,21.4048934 43.6646641,21.3874945 L44.2178754,21.2937648 L44.2178754,21.1489608 L42.7848257,19.047619 L42.5490484,19.047619 L41.1159987,21.1489608 L41.1159987,21.2937648 L41.66921,21.3874945 C41.7681715,21.4048934 41.7887209,21.4862755 41.7319397,21.5676576 L40.9078009,22.8282382 L40.7974832,22.8377795 L39.71161,21.8061914 C39.6678074,21.7624134 39.6678074,21.6900114 39.7543311,21.6445497 L40.196143,21.4526002 L40.1793791,21.3156538 L38.2509809,19.9658336 L38.0952381,20.0292555 L39.227077,23.6190476 C39.8013784,23.3513286 41.1214065,23.1621854 42.6663963,23.1548891 C44.2124676,23.1621854 45.5319549,23.3513286 46.1067971,23.6190476 L47.2380952,20.0292555 L47.0818117,19.9658336" id="Fill-28" fill="#FFFFFE"></path>
            <path d="M38.0952381,10.6669801 C38.0952381,11.0875791 37.7545261,11.4285714 37.3336465,11.4285714 C36.9127669,11.4285714 36.5714286,11.0875791 36.5714286,10.6669801 C36.5714286,10.2457542 36.9127669,9.9047619 37.3336465,9.9047619 C37.7545261,9.9047619 38.0952381,10.2457542 38.0952381,10.6669801" id="Fill-29" fill="#FFFFFE"></path>
            <path d="M52.570374,16.8013571 C52.5484466,17.2228333 52.1900915,17.5458397 51.7703399,17.5226334 C51.3493352,17.5019359 51.0273168,17.1431793 51.0486177,16.7223303 C51.0699185,16.3027356 51.4289001,15.9791021 51.8486517,16.0010539 C52.2696564,16.0223786 52.5923013,16.3811352 52.570374,16.8013571" id="Fill-30" fill="#FFFFFE"></path>
            <path d="M29.5161905,29.3423406 C29.5161905,29.5500364 29.5659683,29.590304 29.6736508,29.590304 C29.8671746,29.590304 30.0632381,29.3677727 30.0632381,28.952381 C30.0632381,28.4490364 29.8179048,28.3080999 29.6264127,28.3080999 C29.5751111,28.3080999 29.5456508,28.3155176 29.5299048,28.3245248 C29.5182222,28.3287635 29.5161905,28.3833366 29.5161905,28.4416187 L29.5161905,29.3423406 Z M29.6264127,28.1904762 C29.9032381,28.1904762 30.1323175,28.2471687 30.2821587,28.3992317 C30.3883175,28.5046692 30.4761905,28.6784555 30.4761905,28.8797934 C30.4761905,29.4636731 30.0510476,29.7142857 29.5324444,29.7142857 L28.952381,29.7142857 L28.952381,29.6236837 C29.1164444,29.6088483 29.1342222,29.5929532 29.1342222,29.3396914 L29.1342222,28.5656004 C29.1342222,28.3128684 29.1164444,28.2959136 28.9701587,28.2821379 L28.9701587,28.1904762 L29.6264127,28.1904762 Z" id="Fill-31" fill="#00264A"></path>
            <path d="M31.6604917,28.8959154 C31.6604917,29.3020621 31.814977,29.5978097 32.0372099,29.5978097 C32.2327543,29.5978097 32.338995,29.4114482 32.338995,29.0063144 C32.338995,28.555603 32.1757847,28.3074586 31.9802403,28.3074586 C31.8057387,28.3074586 31.6604917,28.5039485 31.6604917,28.8959154 Z M32.7619048,28.9349096 C32.7619048,29.4139803 32.4298385,29.7142857 31.9940977,29.7142857 C31.5357744,29.7142857 31.2380952,29.3846081 31.2380952,28.9723844 C31.2380952,28.6092833 31.4829107,28.1904762 32.0259186,28.1904762 C32.4411298,28.1904762 32.7619048,28.4907816 32.7619048,28.9349096 Z" id="Fill-32" fill="#00264A"></path>
            <path d="M35.0204376,28.1904762 L35.0204376,28.2821379 C34.81287,28.2985628 34.8017503,28.3080999 34.8097812,28.5544738 L34.8369627,29.3396914 C34.8456113,29.599841 34.8499356,29.6067289 35.047619,29.6236837 L35.047619,29.7142857 L34.1920206,29.7142857 L34.1920206,29.6236837 C34.3964994,29.6067289 34.405148,29.599841 34.402677,29.3396914 L34.3940283,28.5142062 L34.3829086,28.5142062 L33.8559588,29.6888536 L33.708314,29.6888536 L33.2079279,28.5963309 L33.2023681,28.5963309 L33.1832175,29.1171601 C33.1745689,29.3184979 33.1776577,29.4308232 33.1887773,29.5034108 C33.1992793,29.590304 33.2598198,29.6114975 33.4371171,29.6236837 L33.4371171,29.7142857 L32.7619048,29.7142857 L32.7619048,29.6236837 C32.8934878,29.6136168 32.9447619,29.590304 32.9620592,29.5034108 C32.9756499,29.4308232 32.9917117,29.3068415 33.0053024,29.0933174 L33.0355727,28.6196437 C33.0547233,28.3245248 33.0331017,28.2985628 32.8168855,28.2821379 L32.8168855,28.1904762 L33.4593565,28.1904762 L33.938121,29.1192794 L34.3557272,28.1904762 L35.0204376,28.1904762" id="Fill-33" fill="#00264A"></path>
            <path d="M35.6283456,29.3396914 C35.6283456,29.5929532 35.6464103,29.6088483 35.8095238,29.6236837 L35.8095238,29.7142857 L35.047619,29.7142857 L35.047619,29.6236837 C35.2096699,29.6088483 35.2282659,29.5929532 35.2282659,29.3396914 L35.2282659,28.5656004 C35.2282659,28.3128684 35.2096699,28.2959136 35.047619,28.2821379 L35.047619,28.1904762 L35.8095238,28.1904762 L35.8095238,28.2821379 C35.6464103,28.2959136 35.6283456,28.3128684 35.6283456,28.5656004 L35.6283456,29.3396914" id="Fill-34" fill="#00264A"></path>
            <path d="M31.80702,32.7619048 L31.6213683,32.7619048 L30.8220889,31.6668796 L30.8176919,31.6668796 L30.8176919,32.0935673 C30.8176919,32.3373139 30.8259973,32.4646911 30.8347914,32.5365047 C30.8460282,32.6182777 30.9041665,32.6481563 31.0468251,32.6554949 L31.0468251,32.745655 L30.5084352,32.745655 L30.5084352,32.6554949 C30.6037039,32.6502531 30.6598879,32.6182777 30.6706362,32.5365047 C30.6794302,32.4646911 30.6877357,32.3373139 30.6877357,32.0935673 L30.6877357,31.6668796 C30.6877357,31.4954707 30.6828501,31.4650679 30.6403457,31.4000688 C30.6076123,31.3518437 30.5538711,31.3355939 30.4761905,31.3287795 L30.4761905,31.2380952 L30.9539993,31.2380952 L31.6736439,32.2005013 L31.6775523,32.2005013 L31.6775523,31.8896588 C31.6775523,31.6464364 31.6692469,31.5185349 31.6609414,31.4467214 C31.6497046,31.3659967 31.5915663,31.3355939 31.4489076,31.3287795 L31.4489076,31.2380952 L32,31.2380952 L32,31.3287795 C31.8920289,31.332973 31.8358448,31.3659967 31.8250966,31.4467214 C31.8167911,31.5185349 31.80702,31.6464364 31.80702,31.8896588 L31.80702,32.7619048" id="Fill-35" fill="#00264A"></path>
            <path d="M32.6623958,32.7619048 C32.5102642,32.3446525 32.3032655,31.7711927 32.22296,31.5531312 C32.151134,31.3539404 32.1062427,31.3424083 32,31.3287795 L32,31.2380952 L32.7132725,31.2380952 L32.7132725,31.3287795 L32.637955,31.3376906 C32.5561531,31.347126 32.5561531,31.3675692 32.5805939,31.4493423 C32.6204972,31.5788163 32.7950744,32.0364309 32.8768763,32.2634036 C32.9452108,32.0663096 33.086369,31.622848 33.1212844,31.5143414 C33.1681708,31.3722869 33.1547035,31.347126 33.0549451,31.3355939 L32.9891045,31.3287795 L32.9891045,31.2380952 L33.5238095,31.2380952 L33.5238095,31.3287795 C33.3971164,31.3450292 33.36669,31.3565613 33.280399,31.5678084 C33.2674304,31.5997838 32.9980828,32.2885645 32.8324838,32.7619048 L32.6623958,32.7619048" id="Fill-36" fill="#00264A"></path>
            <path d="M33.5971419,32.2671351 C33.6317398,32.3967779 33.7302684,32.6459352 33.8931039,32.6459352 C33.9799746,32.6459352 34.0465379,32.5694662 34.0465379,32.423618 C34.0465379,32.2914431 33.9814789,32.2175062 33.8799417,32.1547105 L33.8551215,32.1390115 C33.7189865,32.0539334 33.5636723,31.9374575 33.5636723,31.6979221 C33.5636723,31.4447135 33.7001833,31.2380952 33.9615475,31.2380952 C34.0130682,31.2380952 34.0664692,31.2472107 34.1146054,31.2654418 C34.1525878,31.2786086 34.1792883,31.2877241 34.2011,31.2968396 C34.2074931,31.3839434 34.2195271,31.493836 34.2375782,31.6462675 L34.1642458,31.6619665 C34.1273915,31.5140926 34.0694777,31.3550776 33.9382316,31.3550776 C33.8532412,31.3550776 33.7934471,31.4421814 33.7934471,31.5500483 C33.7934471,31.6619665 33.85813,31.7267879 33.964556,31.7921157 L34.0014102,31.8143981 C34.1548442,31.9085917 34.2857143,32.023042 34.2857143,32.2848597 C34.2857143,32.5603507 34.1213745,32.7619048 33.8633949,32.7619048 C33.7972077,32.7619048 33.7283881,32.7441802 33.6832605,32.7239235 C33.6339961,32.7016411 33.5986462,32.6834101 33.5790909,32.6702432 C33.5655526,32.5669341 33.5437409,32.4464068 33.5238095,32.2960009 L33.5971419,32.2671351" id="Fill-37" fill="#00264A"></path>
            <path d="M30.2952913,34.6724949 C30.2952913,34.9257567 30.3144453,34.9421816 30.4761905,34.9564872 L30.4761905,35.047619 L29.7142857,35.047619 L29.7142857,34.9564872 C29.8760309,34.9421816 29.8951849,34.9257567 29.8951849,34.6724949 L29.8951849,33.8989337 C29.8951849,33.6456719 29.8760309,33.6297768 29.7142857,33.6154712 L29.7142857,33.5238095 L30.4761905,33.5238095 L30.4761905,33.6154712 C30.3144453,33.6297768 30.2952913,33.6456719 30.2952913,33.8989337 L30.2952913,34.6724949" id="Fill-38" fill="#00264A"></path>
            <path d="M31.9650443,34.7032254 C31.9650443,34.8250878 31.9708703,34.8833698 32.0220091,34.9045632 C32.0692641,34.9236373 32.1346442,34.9257567 32.2233281,34.9257567 C32.3146013,34.9257567 32.4382409,34.9188688 32.4984424,34.8574078 C32.5437553,34.8134314 32.5923049,34.7503808 32.6389125,34.6258693 L32.7619048,34.6422942 C32.7444269,34.7313067 32.6848728,34.9750315 32.6583323,35.047619 L31.2380952,35.047619 L31.2380952,34.9564872 C31.4555974,34.9421816 31.4782538,34.9257567 31.4782538,34.6724949 L31.4782538,33.8989337 C31.4782538,33.6456719 31.4555974,33.6297768 31.263341,33.6154712 L31.263341,33.5238095 L32.1941983,33.5238095 L32.1941983,33.6154712 C31.9883481,33.6297768 31.9650443,33.6456719 31.9650443,33.8989337 L31.9650443,34.7032254" id="Fill-39" fill="#00264A"></path>
            <path d="M32.7272874,34.7032254 C32.7272874,34.8250878 32.733758,34.8833698 32.7855222,34.9045632 C32.8308159,34.9236373 32.8968153,34.9257567 32.9854615,34.9257567 C33.076696,34.9257567 33.2002831,34.9188688 33.259812,34.8574078 C33.3063998,34.8134314 33.3542817,34.7503808 33.4002224,34.6258693 L33.5238095,34.6422942 C33.5069861,34.7313067 33.4468102,34.9750315 33.419634,35.047619 L32,35.047619 L32,34.9564872 C32.2180568,34.9421816 32.2407037,34.9257567 32.2407037,34.6724949 L32.2407037,33.8989337 C32.2407037,33.6456719 32.2180568,33.6297768 32.0258821,33.6154712 L32.0258821,33.5238095 L32.9569912,33.5238095 L32.9569912,33.6154712 C32.7499343,33.6297768 32.7272874,33.6456719 32.7272874,33.8989337 L32.7272874,34.7032254" id="Fill-40" fill="#00264A"></path>
            <path d="M33.4245174,35.047619 C33.2718371,34.6299862 33.0647706,34.0572477 32.9854367,33.8392612 C32.9120903,33.6401389 32.8681822,33.6286107 32.7619048,33.6144626 L32.7619048,33.5238095 L33.4754109,33.5238095 L33.4754109,33.6144626 L33.4005676,33.6233707 C33.3187389,33.6328028 33.3187389,33.653763 33.3426887,33.734984 C33.3826052,33.8644134 33.5572395,34.3218707 33.6390682,34.5487653 C33.7074251,34.351739 33.8486294,33.908954 33.8835563,33.7999607 C33.9299591,33.6584791 33.9169863,33.6328028 33.8171952,33.6212746 L33.7513331,33.6144626 L33.7513331,33.5238095 L34.2857143,33.5238095 L34.2857143,33.6144626 C34.1594786,33.6307068 34.1290423,33.6422349 34.042723,33.8534093 C34.0292513,33.8858977 33.7598154,34.5744416 33.5946612,35.047619 L33.4245174,35.047619" id="Fill-41" fill="#00264A"></path>
            <path d="M40.3543743,28.1904762 L40.3543743,28.2826357 C40.1460764,28.2990549 40.1349507,28.308059 40.1429859,28.5543473 L40.1701821,29.3392919 C40.1788354,29.5993512 40.1843983,29.6062367 40.3809524,29.6231855 L40.3809524,29.7142857 L39.5255093,29.7142857 L39.5255093,29.6231855 C39.7294805,29.6062367 39.738752,29.5993512 39.7356615,29.3392919 L39.7270082,28.5140937 L39.7165006,28.5140937 L39.1886477,29.6888624 L39.040923,29.6888624 L38.5408844,28.5967195 L38.5353215,28.5967195 L38.5161606,29.116838 C38.5075073,29.3181058 38.5105977,29.4303921 38.5211054,29.5029545 C38.5322311,29.5898174 38.5921863,29.6115332 38.7701975,29.6231855 L38.7701975,29.7142857 L38.0952381,29.7142857 L38.0952381,29.6231855 C38.2262742,29.6131221 38.2781941,29.5898174 38.2942646,29.5029545 C38.3084808,29.4303921 38.3245512,29.3064535 38.3375312,29.0930036 L38.3678179,28.6194945 C38.3869788,28.3244782 38.3653455,28.2990549 38.1496304,28.2826357 L38.1496304,28.1904762 L38.7918308,28.1904762 L39.2708543,29.1189566 L39.6899225,28.1904762 L40.3543743,28.1904762" id="Fill-42" fill="#00264A"></path>
            <path d="M40.96249,29.3392919 C40.96249,29.5924657 40.981112,29.6088849 41.1428571,29.6231855 L41.1428571,29.7142857 L40.3809524,29.7142857 L40.3809524,29.6231855 C40.5432296,29.6088849 40.5623836,29.5924657 40.5623836,29.3392919 L40.5623836,28.56547 C40.5623836,28.3128259 40.5432296,28.2964066 40.3809524,28.2826357 L40.3809524,28.1904762 L41.1428571,28.1904762 L41.1428571,28.2826357 C40.981112,28.2964066 40.96249,28.3128259 40.96249,28.56547 L40.96249,29.3392919" id="Fill-43" fill="#00264A"></path>
            <path d="M42.4741134,29.7142857 L42.2888909,29.7142857 L41.4883778,28.6196371 L41.4839794,28.6196371 L41.4839794,29.046178 C41.4839794,29.2898408 41.4927762,29.4171743 41.5010843,29.4889631 C41.5128135,29.5707081 41.5704817,29.6005764 41.7131861,29.6079125 L41.7131861,29.6980415 L41.1751123,29.6980415 L41.1751123,29.6079125 C41.2704114,29.6026724 41.3261248,29.5707081 41.3368765,29.4889631 C41.3456734,29.4171743 41.3544702,29.2898408 41.3544702,29.046178 L41.3544702,28.6196371 C41.3544702,28.4482872 41.3495831,28.4178948 41.3065763,28.3529181 C41.2743211,28.3047095 41.2195852,28.2884653 41.1428571,28.2816532 L41.1428571,28.1904762 L41.6208192,28.1904762 L42.3402059,29.1530753 L42.3441156,29.1530753 L42.3441156,28.8423397 C42.3441156,28.5986769 42.3358074,28.4713434 42.3274993,28.3995546 C42.3162589,28.3188577 42.258102,28.2884653 42.1153975,28.2816532 L42.1153975,28.1904762 L42.6666667,28.1904762 L42.6666667,28.2816532 C42.5586609,28.2858453 42.5024588,28.3188577 42.4917071,28.3995546 C42.483399,28.4713434 42.4741134,28.5986769 42.4741134,28.8423397 L42.4741134,29.7142857" id="Fill-44" fill="#00264A"></path>
            <path d="M43.1709452,29.1276475 L43.4667189,29.1276475 L43.3209223,28.6901283 L43.3136064,28.6901283 L43.1709452,29.1276475 Z M43.4635835,29.6252285 L43.5341303,29.6153908 C43.6187863,29.6045176 43.6234895,29.5812177 43.5931805,29.4988916 L43.5106147,29.2653755 L43.13123,29.2653755 L43.0617284,29.4849117 C43.031942,29.5838066 43.031942,29.6065887 43.1375008,29.6179797 L43.2043896,29.6252285 L43.2043896,29.7142857 L42.6666667,29.7142857 L42.6666667,29.6252285 C42.783722,29.6086598 42.8197792,29.5993398 42.8955516,29.4072456 L43.3580247,28.2225782 L43.5174081,28.1904762 L43.6741786,28.6238532 C43.7739892,28.8962024 43.8732772,29.1669984 43.9605461,29.4005145 C44.0352734,29.5993398 44.0770788,29.6112486 44.1904762,29.6252285 L44.1904762,29.7142857 L43.4635835,29.7142857 L43.4635835,29.6252285 Z" id="Fill-45" fill="#00264A"></path>
            <path d="M40.6022268,32.4005996 C40.6022268,32.6440213 40.6234975,32.6603515 40.842113,32.6741301 L40.842113,32.7619048 L39.9280637,32.7619048 L39.9280637,32.6741301 C40.1372256,32.6603515 40.1579054,32.6440213 40.1579054,32.4005996 L40.1579054,31.4116034 L40.1135915,31.4116034 C39.938699,31.4116034 39.8672058,31.4391605 39.8252553,31.479986 C39.7945309,31.5131566 39.7632157,31.5718432 39.7289463,31.6984021 L39.6190476,31.6984021 C39.629683,31.5090741 39.645636,31.3529168 39.6503628,31.2380952 L39.7313097,31.2380952 C39.7714877,31.2896374 39.7968943,31.2942302 39.8672058,31.2942302 L40.9100611,31.2942302 C40.9786,31.2942302 40.991008,31.2809619 41.0335494,31.2380952 L41.1144962,31.2380952 C41.1168596,31.3330144 41.1304492,31.5248939 41.1428571,31.6917679 L41.0282317,31.6984021 C40.9886445,31.5631678 40.9602836,31.5044812 40.9212873,31.4656971 C40.8769734,31.4248716 40.790118,31.4116034 40.6642663,31.4116034 L40.6022268,31.4116034 L40.6022268,32.4005996" id="Fill-46" fill="#00264A"></path>
            <path d="M41.7234573,32.3867806 C41.7234573,32.6395126 41.7420663,32.6564673 41.9047619,32.6707729 L41.9047619,32.7619048 L41.1428571,32.7619048 L41.1428571,32.6707729 C41.3044894,32.6564673 41.3230984,32.6395126 41.3230984,32.3867806 L41.3230984,31.6132194 C41.3230984,31.3599576 41.3044894,31.3435327 41.1428571,31.3297569 L41.1428571,31.2380952 L41.9047619,31.2380952 L41.9047619,31.3297569 C41.7420663,31.3435327 41.7234573,31.3599576 41.7234573,31.6132194 L41.7234573,32.3867806" id="Fill-47" fill="#00264A"></path>
            <path d="M42.3271584,31.943769 C42.3271584,32.3495441 42.4811304,32.6458967 42.7038766,32.6458967 C42.899421,32.6458967 43.0061749,32.4594732 43.0061749,32.0536981 C43.0061749,31.6033435 42.8429646,31.3546099 42.6474202,31.3546099 C42.4724053,31.3546099 42.3271584,31.5516717 42.3271584,31.943769 Z M43.4285714,31.9822695 C43.4285714,32.4620061 43.0970184,32.7619048 42.6607644,32.7619048 C42.2024411,32.7619048 41.9047619,32.4326241 41.9047619,32.0202634 C41.9047619,31.6570415 42.1495774,31.2380952 42.6925853,31.2380952 C43.1083097,31.2380952 43.4285714,31.5385005 43.4285714,31.9822695 Z" id="Fill-48" fill="#00264A"></path>
            <path d="M41.1162934,33.5238095 L41.1162934,33.6154394 C40.9087259,33.6318586 40.8976062,33.6413923 40.9050193,33.8876806 L40.9328185,34.6726253 C40.9402317,34.9326845 40.9457915,34.93957 41.1428571,34.9565189 L41.1428571,35.047619 L40.2872587,35.047619 L40.2872587,34.9565189 C40.4923552,34.93957 40.5003861,34.9326845 40.4972973,34.6726253 L40.4898842,33.847427 L40.4787645,33.847427 L39.9505792,35.0216661 L39.8041699,35.0216661 L39.3037838,33.9295231 L39.2976062,33.9295231 L39.2790734,34.4501713 C39.2704247,34.6514392 39.2735135,34.7637254 39.2846332,34.8362878 C39.2951351,34.9231508 39.3544402,34.9443369 39.532973,34.9565189 L39.532973,35.047619 L38.8571429,35.047619 L38.8571429,34.9565189 C38.9887259,34.9464555 39.0406178,34.9231508 39.0579151,34.8362878 C39.070888,34.7637254 39.0869498,34.6392572 39.1005405,34.426337 L39.1314286,33.9533575 C39.1505792,33.6578115 39.1283398,33.6318586 38.9121236,33.6154394 L38.9121236,33.5238095 L39.5545946,33.5238095 L40.0333591,34.4517603 L40.4509653,33.5238095 L41.1162934,33.5238095" id="Fill-49" fill="#00264A"></path>
            <path d="M41.3803586,33.8988033 C41.3803586,33.6461592 41.3581918,33.62974 41.1713573,33.6154394 L41.1713573,33.5238095 L42.4988323,33.5238095 C42.501999,33.5640631 42.5159324,33.7351408 42.5298658,33.9109853 L42.406365,33.9178708 C42.3778649,33.8029363 42.348098,33.737789 42.3024977,33.7001837 C42.2587975,33.6599302 42.1656969,33.6461592 42.0174959,33.6461592 L41.9699956,33.6461592 C41.8629616,33.6461592 41.8578949,33.6461592 41.8578949,33.7277256 L41.8578949,34.1800487 L41.9978625,34.1800487 C42.2385307,34.1800487 42.2461307,34.1662777 42.2746309,33.9883145 L42.398765,33.9883145 L42.398765,34.5407418 L42.2746309,34.5407418 C42.2461307,34.3352368 42.2385307,34.3209362 41.9978625,34.3209362 L41.8578949,34.3209362 L41.8578949,34.7028154 C41.8578949,34.8251651 41.8629616,34.8828972 41.9136286,34.9040833 C41.9585956,34.9231508 42.0225626,34.9252694 42.1099632,34.9252694 C42.2214306,34.9252694 42.3455647,34.9114984 42.406365,34.8553553 C42.4538653,34.8135128 42.501999,34.7266498 42.5444326,34.6138339 L42.6666667,34.6302531 C42.6533666,34.7451876 42.5950996,34.9840608 42.5691327,35.047619 L41.1428571,35.047619 L41.1428571,34.9565189 C41.3581918,34.9416886 41.3803586,34.9252694 41.3803586,34.6726253 L41.3803586,33.8988033" id="Fill-50" fill="#00264A"></path>
            <path d="M42.4090404,34.4609809 L42.7048142,34.4609809 L42.5590176,34.0234616 L42.5517016,34.0234616 L42.4090404,34.4609809 Z M42.7022013,34.9585619 L42.7722255,34.9487242 C42.8568816,34.9378509 42.8615847,34.9145511 42.8317983,34.832225 L42.7487099,34.598191 L42.3693252,34.598191 L42.2998236,34.8187628 C42.2700372,34.9171399 42.2700372,34.939922 42.3761186,34.951313 L42.4435299,34.9585619 L42.4435299,35.047619 L41.9047619,35.047619 L41.9047619,34.9585619 C42.0223398,34.9419931 42.0573519,34.9326732 42.1331243,34.7400612 L42.5961199,33.5564293 L42.7560259,33.5238095 L42.9127964,33.9571865 C43.012607,34.2295358 43.1108498,34.4998139 43.1986413,34.7338479 C43.2733686,34.9326732 43.3151741,34.9440642 43.4285714,34.9585619 L43.4285714,35.047619 L42.7022013,35.047619 L42.7022013,34.9585619 Z" id="Fill-51" fill="#00264A"></path>
            <path d="M35.047619,54.0955512 C35.047619,54.5164308 34.7062807,54.8571429 34.2860274,54.8571429 C33.8651479,54.8571429 33.5238095,54.5164308 33.5238095,54.0955512 C33.5238095,53.6740454 33.8651479,53.3333333 34.2860274,53.3333333 C34.7062807,53.3333333 35.047619,53.6740454 35.047619,54.0955512" id="Fill-52" fill="#FFFFFE"></path>
            <path d="M41.1428571,55.6184211 C41.1428571,56.0394737 40.801238,56.3809524 40.3800121,56.3809524 C39.96004,56.3809524 39.6190476,56.0394737 39.6190476,55.6184211 C39.6190476,55.197995 39.96004,54.8571429 40.3800121,54.8571429 C40.801238,54.8571429 41.1428571,55.197995 41.1428571,55.6184211" id="Fill-53" fill="#FFFFFE"></path>
            <path d="" id="Fill-54" fill="#FFFFFE"></path>
            <path d="" id="Fill-55" fill="#FFFFFE"></path>
            <path d="" id="Fill-56" fill="#FFFFFE"></path>
            <path d="" id="Fill-57" fill="#FFFFFE"></path>
            <path d="" id="Fill-58" fill="#FFFFFE"></path>
            <path d="" id="Fill-59" fill="#FFFFFE"></path>
            <path d="M19.7488211,42.6666843 C19.9487518,42.6677003 20.5162659,42.7251033 20.9965814,43.4454345 C21.1941032,43.7410853 21.3338139,44.0905831 21.3333321,44.4558286 C21.3323686,45.0608459 21.0529474,45.4103437 20.3799277,45.9096988 L18.5950042,47.2380952 L18.1089077,46.5091282 L20.1082146,45.0222385 C20.2932107,44.885081 20.5398722,44.660041 20.540354,44.3709941 C20.540354,44.2114849 20.52012,44.0819472 20.3833,43.8767189 C20.1713253,43.5587165 19.9492336,43.531793 19.8080777,43.531285 C19.596103,43.530777 19.3956905,43.6659026 18.96596,43.9849209 L17.2335485,45.1756518 L16.7619048,44.4680204 L18.6012671,43.1985509 C19.0868819,42.8378773 19.4005081,42.6646524 19.7488211,42.6666843" id="Fill-60" fill="#FFFFFE"></path>
            <polyline id="Fill-61" fill="#FFFFFE" points="16.780005 40.677296 19.5146054 39.6599461 19.8095238 40.3869167 15.6806655 41.9047619 15.3884428 41.1460949 17.5245797 38.5664228 14.7700306 39.4794815 14.4761905 38.7146798 18.6427897 37.3333333 18.9188377 38.0505906 16.780005 40.677296"></polyline>
            <polyline id="Fill-62" fill="#FFFFFE" points="13.7142857 34.9211054 18.1420237 34.2857143 18.2857143 35.1746459 13.857432 35.8095238 13.7142857 34.9211054"></polyline>
            <polyline id="Fill-63" fill="#FFFFFE" points="18.2465958 31.4764668 13.7142857 32.7619048 13.7544908 31.8554139 17.1550817 30.9880004 13.8452239 29.8341914 13.8843424 28.952381 18.2857143 30.6018549 18.2465958 31.4764668"></polyline>
            <polyline id="Fill-64" fill="#FFFFFE" points="13.7142857 26.9728992 14.3843296 24.3809524 15.0489699 24.5891083 14.6107887 26.283011 15.5146603 26.5657786 15.9258236 24.9751429 16.5786743 25.1789735 16.1670197 26.7701499 17.1578398 27.0810321 17.6087931 25.3357663 18.2857143 25.5471662 17.602407 28.1904762 13.7142857 26.9728992"></polyline>
            <path d="M17.6957372,20.6463747 C17.477252,20.7024181 17.3635771,20.8562998 17.200365,21.1222683 L17.059575,21.3435921 L18.100378,21.8546316 L18.2755834,21.5682405 C18.4231521,21.327444 18.4554817,21.1897103 18.4033372,21.0225301 C18.3637075,20.8952452 18.2323035,20.7608361 18.1035067,20.6952939 C17.9512449,20.618353 17.801069,20.618828 17.6957372,20.6463747 Z M20.8635119,21.8294596 L19.5922305,21.7273467 C18.9904836,21.6760527 18.9320819,21.8076122 18.7626124,22.0845044 L18.7125538,22.1657197 L20.2210924,22.8966582 L19.7726502,23.6190476 L16,21.7382704 L16.6189545,20.7494375 C16.8979273,20.2939664 17.1951506,19.8095238 17.9502021,19.8095238 C18.424195,19.8095238 19.0838222,20.1723808 19.0838222,20.8249535 C19.0838222,20.9408398 19.053057,21.0633753 18.9998696,21.1916101 C19.1698605,20.9683866 19.4769913,20.9356154 19.755964,20.9384651 C19.910833,20.939415 20.0625733,20.9607875 20.1887629,20.9702863 L21.3333333,21.0619505 L20.8635119,21.8294596 Z" id="Fill-65" fill="#FFFFFE"></path>
            <polyline id="Fill-66" fill="#FFFFFE" points="22.0952381 13.4789005 22.7670483 12.952381 25.1428571 16.2348857 24.4720067 16.7619048 22.0952381 13.4789005"></polyline>
            <polyline id="Fill-67" fill="#FFFFFE" points="27.3283345 11.8053998 28.952381 14.8366893 28.1432142 15.2380952 26.5191677 12.2068057 25.4773266 12.7246843 25.1428571 12.0998308 28.0305125 10.6666667 28.364982 11.2915202 27.3283345 11.8053998"></polyline>
            <polyline id="Fill-68" fill="#FFFFFE" points="32.7688874 11.8942315 33.2227564 13.5089593 32.2915522 13.7142857 31.8371108 12.099558 29.7142857 9.98393511 30.700435 9.76542721 32.1049679 11.2214706 32.577152 9.34818359 33.5238095 9.14285714 32.7688874 11.8942315"></polyline>
            <polyline id="Fill-69" fill="#FFFFFE" points="47.8817547 13.2174288 49.2903926 13.9578768 48.9069089 14.5268628 47.4982711 13.7864147 46.5192216 15.2380952 45.7142857 14.8151873 47.9978304 11.4285714 50.2857143 12.6316798 49.8957217 13.2107236 48.4127737 12.4305231 47.8817547 13.2174288"></polyline>
            <polyline id="Fill-70" fill="#FFFFFE" points="55.6921868 27.2870977 56.8996732 26.0368097 55.1458663 25.6464734 54.8571429 24.7784423 57.4637035 25.4192401 59.0983718 23.6190476 59.4015851 24.5284857 58.2799644 25.6813158 59.9087294 26.0504437 60.1904762 26.9002961 57.7674534 26.2897961 55.9927167 28.1904762 55.6921868 27.2870977"></polyline>
            <polyline id="Fill-71" fill="#FFFFFE" points="59.3257415 30.5284371 58.3042201 30.5974026 58.4128471 31.9587998 57.674933 32 57.566306 30.6493506 55.6827255 30.7559337 55.6190476 30.015674 60.0149607 29.7142857 60.1904762 31.9305867 59.4391844 31.9722347 59.3257415 30.5284371"></polyline>
            <path d="M51.8147621,51.9683388 C47.7314613,53.4083995 43.9172754,53.3162605 40.6558101,52.5972654 C40.7598333,51.2006861 41.2799496,49.6524397 42.1405997,49.4195039 C49.4765678,47.1947085 54.8314364,40.3815962 54.8314364,32.3422065 C54.8314364,22.5019645 46.8102604,14.496221 36.9518577,14.496221 C27.0929376,14.496221 19.072279,22.5019645 19.072279,32.3422065 C19.072279,37.7168111 21.5341627,42.8305276 25.6971629,46.2049904 C24.7216214,46.6744853 23.8894354,47.3908922 23.276164,48.2698365 C22.9827253,48.0658883 22.7006722,47.8552108 22.4367326,47.6388394 L22.2700884,47.8060355 C22.4512234,48.0249951 22.7203383,48.306071 23.0468988,48.622346 C22.4884854,49.5509832 22.1634775,50.6343933 22.1634775,51.7938958 C22.1634775,51.8736116 22.1722755,51.9512569 22.1753806,52.0299374 C15.934503,47.3375758 12.2688478,39.9845701 12.3330214,32.1423994 C12.3883969,25.3204872 15.1644204,18.9980929 20.1513262,14.3398952 C24.7790671,10.0171251 30.8170735,7.66447382 37.1521413,7.71571969 C50.7274345,7.82545832 61.6824803,18.9628937 61.5722467,32.5425312 C61.5096257,40.2537404 57.9547217,47.313247 51.8147621,51.9683388 Z M37.5371826,57.7865566 C34.1385722,57.7865566 29.8958726,56.6306776 26.9806338,54.911094 C26.1101507,54.3970824 25.0719883,53.4425634 25.0719883,51.8120131 C25.0719883,51.3885876 25.1532403,50.9843146 25.2950431,50.6100645 C26.396344,51.5169611 27.5245564,52.3591533 28.2377109,52.7504854 C28.4053901,52.8421068 28.502168,52.887141 28.6972763,52.887141 C29.1656397,52.887141 29.5455057,52.5061616 29.5455057,52.036149 C29.5455057,51.6769103 29.3503974,51.3854818 29.0279771,51.2452027 C28.4167758,50.9770677 27.1498657,50.4521858 25.7763448,49.745614 C26.3937564,48.9401739 27.3584297,48.419433 28.4457574,48.419433 C28.9451725,48.419433 29.4264741,48.5265835 29.8756889,48.7382962 L30.8036178,49.2797425 C33.7535309,51.08163 41.2934053,55.6865113 50.4303731,53.2945198 C46.9794922,56.3097439 42.7455906,57.7865566 37.5371826,57.7865566 Z M40.357196,59.9373302 C39.3785494,59.9373302 38.6524568,60.7003242 38.6524568,61.6429376 C38.6524568,62.7423945 39.4215043,63.4044497 40.4130891,63.4044497 C40.5362609,63.4044497 40.6568451,63.3899559 40.7727715,63.3661447 C40.4772627,64.7368422 38.8573981,66.2209019 36.9057977,66.8850276 C34.9878366,66.2209019 33.3410606,64.7368422 33.0460693,63.3661447 C33.1619957,63.3899559 33.2825798,63.4044497 33.4057516,63.4044497 C34.3968189,63.4044497 35.1658665,62.7423945 35.1658665,61.6429376 C35.1658665,60.7003242 34.4402914,59.9373302 33.4611272,59.9373302 C33.7079884,59.4838819 33.9879713,58.9243184 34.1949828,58.3383556 C35.3470015,58.5360922 36.4809067,58.6442779 37.5371826,58.6442779 C38.3895522,58.6442779 39.2181156,58.6002789 40.0280478,58.5200455 C40.1372464,58.9372593 40.4001509,59.7364878 40.4694998,59.9445771 C40.4343078,59.940436 40.3980808,59.9373302 40.357196,59.9373302 Z M28.3991798,46.4405143 C30.1851711,46.4405143 31.8583411,47.3577636 32.8385403,48.8273294 C31.9763376,48.6125109 31.1296608,48.3309174 30.3042026,47.9789256 L30.301615,47.984102 L30.2772911,47.9701258 C29.7023169,47.6983674 29.0854227,47.5606765 28.4457574,47.5606765 C27.0230712,47.5606765 25.7639241,48.2574133 24.9860786,49.3232238 C24.660553,49.1420515 24.3355451,48.9520795 24.0157124,48.75279 C24.9793507,47.3577636 26.5836894,46.4405143 28.3991798,46.4405143 Z M35.1451653,50.0991587 C35.0049151,50.2228735 34.8874361,50.3621173 34.7922108,50.5127491 C34.2467356,50.2813663 33.195635,49.7901306 32.8545837,49.5851471 C33.3938485,49.7585549 34.5991726,50.044807 35.1451653,50.0991587 Z M40.5750756,49.8201534 C40.1351763,50.5293134 39.8650263,51.4512214 39.7723887,52.3845174 C38.2177327,51.9771386 36.8038446,51.4393158 35.5643635,50.8771642 C35.736183,50.5179255 36.1383027,50.1856038 36.8235106,50.1856038 C36.866983,50.1856038 36.9094204,50.1887096 36.9518577,50.1887096 C38.1928914,50.1887096 39.4044259,50.0608537 40.5750756,49.8201534 Z M36.9518577,49.3309883 C35.9545801,49.3309883 34.9717932,49.2409198 34.0060848,49.0711355 C32.9653348,46.9514201 30.7704959,45.5833107 28.3991798,45.5833107 C27.7916012,45.5833107 27.2057588,45.6744144 26.6494155,45.8364342 C22.4662317,42.6307204 19.9753665,37.6215662 19.9753665,32.3422065 C19.9753665,22.9750829 27.5913176,15.3539423 36.9518577,15.3539423 C46.3129154,15.3539423 53.928349,22.9750829 53.928349,32.3422065 C53.928349,41.7103653 46.3129154,49.3309883 36.9518577,49.3309883 Z M28.3991798,57.1462421 C25.4590997,57.1462421 23.0670824,54.7449332 23.0670824,51.7938958 C23.0670824,50.8709526 23.3004878,50.002361 23.7114056,49.2440256 C23.9841431,49.4919728 24.2755118,49.7492374 24.578266,50.0090902 C24.3184666,50.5572657 24.1689009,51.1670398 24.1689009,51.8120131 C24.1689009,53.4146111 24.9762455,54.7382039 26.50399,55.6388889 C27.389999,56.1622179 28.3950396,56.6327481 29.460631,57.0411622 C29.1138868,57.1110429 28.7588622,57.1462421 28.3991798,57.1462421 Z M62.4753341,32.5487429 C62.589708,18.4965046 51.2325424,6.97187815 37.1593867,6.85799844 C30.5831506,6.80468203 24.3179491,9.24481359 19.5178712,13.7285683 C14.3591459,18.5477504 11.4863445,25.0844457 11.4294164,32.1356701 C11.3611026,40.5430983 15.4387106,48.4132214 22.3399547,53.2344741 C22.9946284,55.9655166 25.4596172,58.0034457 28.3991798,58.0034457 C29.2401638,58.0034457 30.0547538,57.8393554 30.8238014,57.5168688 C31.6420141,57.7762039 32.480928,57.9956812 33.3177718,58.1706418 C33.0465868,58.9191421 32.661028,59.6236434 32.2853022,60.2618874 L32.8965035,60.8726967 C33.0424466,60.775899 33.2137485,60.7282765 33.3860856,60.7272413 C33.8534139,60.7272413 34.3005586,61.0471397 34.2974535,61.6237851 C34.2974535,62.0932801 33.9807259,62.5327523 33.3239821,62.531717 C32.9674049,62.531717 32.5062869,62.3438155 32.2573556,61.8101338 C32.2573556,61.8101338 32.0917465,62.3298393 32.0917465,62.9556601 C32.0917465,64.8502043 34.1504753,66.9357559 36.9057977,67.8095238 C39.6761284,66.9430028 41.7270943,64.8502043 41.7270943,62.9556601 C41.7270943,62.3298393 41.5614851,61.8101338 41.5614851,61.8101338 C41.3125539,62.3438155 40.8509183,62.531717 40.4943411,62.531717 C39.8381148,62.5327523 39.5213873,62.0932801 39.5213873,61.6237851 C39.5182822,61.0471397 39.9654269,60.7272413 40.4322377,60.7272413 C40.6040572,60.7282765 40.7758767,60.775899 40.9223373,60.8726967 L41.4833383,60.3146861 L41.4978291,60.306404 L41.5211179,60.2774164 C41.5237056,60.279487 41.5268107,60.279487 41.5288808,60.2815575 L41.5299159,60.2660284 L41.5330211,60.2618874 L41.530951,60.2572286 L41.530951,60.2561934 C41.2551082,59.5956911 41.0537896,58.9931639 40.9125043,58.4191066 C45.482282,57.7927682 49.3394227,55.8521545 52.4104376,52.6241824 L52.4052623,52.6179708 C58.7418827,47.7993063 62.4101255,40.5094521 62.4753341,32.5487429 Z" id="Fill-72" fill="#FFFFFE"></path>
            <path d="M22.8571429,17.9709354 C22.8571429,18.3381266 22.7100884,18.7256306 22.4150216,19.076155 C21.8483591,19.7495993 21.2443343,19.8110582 21.1815847,19.8094957 L21.010101,19.0990719 C21.1049439,19.0714674 21.5489812,18.9730289 21.8636873,18.5980251 C22.0059516,18.4287526 22.0797183,18.2480216 22.0797183,18.0891658 C22.0797183,17.9198932 21.9772114,17.6261403 21.6562783,17.6261403 C21.3137899,17.6261403 20.7413794,18.1657291 20.1536407,18.1657291 C19.9285086,18.1657291 19.6779891,18.1313537 19.4164526,17.8709344 C19.1644962,17.620411 19.047619,17.3006161 19.047619,16.975092 C19.047619,16.6198801 19.1970685,16.2464388 19.4739332,15.9167479 C20.0008383,15.2912208 20.5799549,15.2406994 20.6302503,15.2380952 L20.7715567,15.936019 C20.7049751,15.9485191 20.2743499,16.0511243 20.0070653,16.3688359 C19.869591,16.5318583 19.7967823,16.7089435 19.7967823,16.8646742 C19.7967823,17.0334259 19.8954572,17.2401989 20.1517247,17.2443656 C20.4333794,17.2480114 21.1423063,16.6844641 21.7185489,16.6844641 C21.9858334,16.6844641 22.1803093,16.7360271 22.4509469,17.0053006 C22.7220636,17.2745742 22.8571429,17.6136401 22.8571429,17.9709354" id="Fill-73" fill="#FFFFFE"></path>
            <path d="M44.7302055,11.9674861 C44.7302055,11.6664628 44.6578301,11.3522134 44.4648292,11.1083263 C44.2645347,10.8549165 43.9357599,10.6776883 43.5458307,10.6776883 C42.7182832,10.6776883 42.1123501,11.6453012 42.1123501,12.4446796 C42.1123501,13.1863927 42.6436637,13.6905671 43.3573182,13.6905671 C44.2931482,13.6905671 44.7302055,12.544139 44.7302055,11.9674861 Z M43.3887369,14.4761905 C42.2110947,14.4761905 41.1428571,13.6302566 41.1428571,12.3584462 C41.1428571,11.2225988 41.9496458,9.9047619 43.4162283,9.9047619 C44.6095799,9.9047619 45.7142857,10.700437 45.7142857,11.979125 C45.7142857,12.9414475 45.0247563,14.4761905 43.3887369,14.4761905 Z" id="Fill-74" fill="#FFFFFE"></path>
            <path d="M54.4792445,22.7066207 C55.2467261,22.7066207 56.3111089,22.0227104 56.3111089,21.1031765 C56.3111089,20.4695619 55.8330927,19.9748067 55.2196385,19.9748067 C54.502083,19.9748067 53.4068947,20.631929 53.4068947,21.56021 C53.4068947,22.0549652 53.7744361,22.7066207 54.4792445,22.7066207 Z M54.6348653,23.6190476 C53.3043868,23.6190476 52.5714286,22.2998827 52.5714286,21.4147903 C52.5714286,20.0726643 53.9741406,19.047619 55.0709223,19.047619 C56.2659629,19.047619 57.1428571,20.2169907 57.1428571,21.2770242 C57.1428571,22.4819307 55.9201978,23.6190476 54.6348653,23.6190476 Z" id="Fill-75" fill="#FFFFFE"></path>
            <path d="M58.090319,37.0988866 C58.8627237,37.0988866 59.4286597,36.593343 59.4286597,35.8508968 C59.4286597,34.9644953 58.4699038,34.5127933 57.7297929,34.5127933 C56.7821546,34.5127933 56.3972758,35.1724936 56.3972758,35.793088 C56.3972758,36.7633689 57.5090302,37.0988866 58.090319,37.0988866 Z M55.6190476,35.8078236 C55.6190476,34.655615 56.3475115,33.5238095 57.7954394,33.5238095 C59.0130752,33.5238095 60.1904762,34.3274651 60.1904762,35.7709846 C60.1904762,36.9560648 59.4810709,38.0952381 58.0426724,38.0952381 C56.8123308,38.0952381 55.6190476,37.2632449 55.6190476,35.8078236 Z" id="Fill-76" fill="#FFFFFE"></path>
            <path d="M56.2771461,41.2626665 C56.2771461,41.5717726 56.5585478,41.8174849 56.8713345,41.8174849 C57.1511404,41.8174849 57.3256201,41.6754632 57.4899927,41.3398201 L57.6272359,41.0371026 L56.545249,40.567792 L56.3649179,40.9407833 C56.3053395,41.0631481 56.2771461,41.1707701 56.2771461,41.2626665 Z M53.7386794,40.8125215 L55.0403617,40.8174357 C55.657424,40.82235 55.7047676,40.6827854 55.8515859,40.3844906 L55.8946738,40.2960342 L54.3280803,39.6242567 L54.7036372,38.8571429 L58.6666667,40.5466608 L58.1586542,41.6002752 C57.8107587,42.3089095 57.5139304,42.6666667 56.7872864,42.6666667 C56.320766,42.6666667 55.636146,42.3079267 55.6414655,41.6489262 C55.6425294,41.5476928 55.657424,41.4395793 55.6930647,41.3236031 C55.4595385,41.6975773 54.8733293,41.6459777 54.5057517,41.6459777 L53.3333333,41.6410634 L53.7386794,40.8125215 Z" id="Fill-77" fill="#FFFFFE"></path>
            <path d="M53.2215146,46.424688 C53.6524259,46.424688 53.9018487,46.2946026 54.3967273,45.6835503 L54.5519347,45.4926588 L52.4489486,43.7731398 L52.1906002,44.092123 C51.9377063,44.4056237 51.8058048,44.7131435 51.8058048,45.0101967 C51.8058048,45.40444 52.000186,45.7518327 52.397874,46.0782921 C52.684487,46.3115486 52.9477942,46.424688 53.2215146,46.424688 Z M51.047619,45.2215231 C51.047619,44.3821984 51.4343979,43.9256536 51.9243178,43.3190871 L52.4539073,42.6666667 L55.6190476,45.255415 L54.9079696,46.1326189 C54.5073063,46.6280398 54.0347419,47.2380952 53.1263075,47.2380952 C52.6096106,47.2380952 52.1553934,46.9968642 51.8340694,46.7342014 C51.4319186,46.4057483 51.047619,45.8485245 51.047619,45.2215231 Z" id="Fill-78" fill="#FFFFFE"></path>
        </g>
    </g>
</svg>